<?xml version="1.0" encoding="UTF-8" standalone="no"?>
<!-- Created with Inkscape (http://www.inkscape.org/) -->
<svg
   xmlns:dc="http://purl.org/dc/elements/1.1/"
   xmlns:cc="http://creativecommons.org/ns#"
   xmlns:rdf="http://www.w3.org/1999/02/22-rdf-syntax-ns#"
   xmlns:svg="http://www.w3.org/2000/svg"
   xmlns="http://www.w3.org/2000/svg"
   xmlns:xlink="http://www.w3.org/1999/xlink"
   xmlns:sodipodi="http://sodipodi.sourceforge.net/DTD/sodipodi-0.dtd"
   xmlns:inkscape="http://www.inkscape.org/namespaces/inkscape"
   width="399.99973"
   height="452.306"
   id="svg3972"
   sodipodi:version="0.32"
   inkscape:version="0.46"
   version="1.0"
   sodipodi:docname="North America BOX.svg"
   inkscape:output_extension="org.inkscape.output.svg.inkscape">
  <defs
     id="defs3974">
    <linearGradient
       id="linearGradient15386">
      <stop
         style="stop-color:#35a5ec;stop-opacity:1"
         offset="0"
         id="stop15388" />
      <stop
         style="stop-color:#2681da;stop-opacity:1"
         offset="1"
         id="stop15390" />
    </linearGradient>
    <radialGradient
       inkscape:collect="always"
       xlink:href="#linearGradient15386"
       id="radialGradient3791"
       gradientUnits="userSpaceOnUse"
       gradientTransform="matrix(0.9590971,0,0,1.0620716,256.90022,-91.285194)"
       cx="-372.03143"
       cy="263.1394"
       fx="-372.03143"
       fy="263.1394"
       r="127.25526" />
    <inkscape:perspective
       sodipodi:type="inkscape:persp3d"
       inkscape:vp_x="0 : 526.18109 : 1"
       inkscape:vp_y="0 : 1000 : 0"
       inkscape:vp_z="744.09448 : 526.18109 : 1"
       inkscape:persp3d-origin="372.04724 : 350.78739 : 1"
       id="perspective3980" />
  </defs>
  <sodipodi:namedview
     id="base"
     pagecolor="#ffffff"
     bordercolor="#666666"
     borderopacity="1.0"
     inkscape:pageopacity="0.0"
     inkscape:pageshadow="2"
     inkscape:zoom="1.2483528"
     inkscape:cx="135"
     inkscape:cy="152.65338"
     inkscape:document-units="px"
     inkscape:current-layer="layer1"
     showgrid="false"
     inkscape:window-width="1280"
     inkscape:window-height="744"
     inkscape:window-x="-4"
     inkscape:window-y="-4" />
  <metadata
     id="metadata3977">
    <rdf:RDF>
      <cc:Work
         rdf:about="">
        <dc:format>image/svg+xml</dc:format>
        <dc:type
           rdf:resource="http://purl.org/dc/dcmitype/StillImage" />
      </cc:Work>
    </rdf:RDF>
  </metadata>
  <g
     inkscape:label="Capa 1"
     inkscape:groupmode="layer"
     id="layer1"
     transform="translate(-28.571568,-140.4949)">
    <g
       id="g4307"
       transform="matrix(1.4814804,0,0,1.4814804,-110.05266,-176.53377)">
      <path
         style="fill:#008080;fill-opacity:1;fill-rule:nonzero;stroke:none;stroke-width:0.69999999;stroke-miterlimit:4;stroke-dasharray:none;stroke-opacity:1"
         d="M 284.59131,500.7557 L 286.46159,502.75343 L 287.88382,496.79689 L 286.46159,496.50055 L 289.86972,489.12155 L 284.17987,488.82521 L 275.64555,492.52952 L 274.22237,499.34546 L 270.8152,503.61283 L 267.67397,503.04978 L 258.87179,506.19104 L 255.73056,503.61283 L 252.88611,503.90919 L 244.35084,490.54401 L 244.0849,488.26215 L 243.78812,480.29046 L 244.0849,477.1492 L 245.77403,476.31944 L 245.21034,478.0086 L 246.63257,474.03757 L 245.50713,468.61446 L 244.0849,468.34774 L 245.50713,468.34774 L 246.33676,464.64342 L 249.47798,463.22096 L 248.35157,462.09486 L 250.90021,462.36156 L 250.0407,462.92462 L 254.30834,460.37604 L 254.60512,457.53113 L 256.59007,458.0942 L 255.46366,458.9536 L 259.1387,457.2348 L 265.12533,457.53113 L 266.84337,456.10867 L 270.8152,458.9536 L 272.23742,457.53113 L 273.65965,458.39053 L 273.09693,456.40503 L 274.78606,456.67173 L 276.50506,458.9536 L 277.92728,457.53113 L 275.08187,456.40503 L 276.80087,454.68623 L 275.08187,454.38987 L 272.23742,453.82682 L 280.77173,452.13765 L 281.06851,450.1225 L 281.89814,451.84131 L 281.06851,452.7007 L 284.74259,450.41885 L 284.17987,451.54495 L 287.88382,450.41885 L 286.75837,450.98191 L 290.1665,450.71519 L 290.72923,451.84131 L 291.58873,453.26376 L 294.43317,451.27825 L 295.55958,450.41885 L 296.98181,450.71519 L 297.54549,450.98191 L 302.10894,454.68623 L 302.10894,458.9536 L 303.53117,458.39053 L 302.96845,460.6724 L 304.39067,462.65791 L 305.8129,462.09486 L 307.50203,466.36223 L 310.34744,467.192 L 310.34744,469.20714 L 312.36226,468.34774 L 312.36226,469.20714 L 313.19188,461.23546 L 306.9393,448.70004 L 304.39067,443.86961 L 306.9393,438.74284 L 306.07981,437.61672 L 307.23608,438.47612 L 308.92522,435.89792 L 312.36226,430.50444 L 319.47434,423.09581 L 317.19261,423.39215 L 318.61484,421.67334 L 316.62989,421.40664 L 319.74125,421.11029 L 320.89753,419.42112 L 320.03803,417.99866 L 319.74125,419.68784 L 319.47434,418.26538 L 317.19261,419.12477 L 318.61484,417.13926 L 320.03803,417.70231 L 318.88175,415.15375 L 321.16348,418.56172 L 318.61484,414.29434 L 314.91089,413.73128 L 316.8968,413.998 L 315.20767,412.30884 L 316.62989,413.43495 L 316.8968,411.71614 L 316.62989,411.59761 L 316.62989,410.29367 L 312.62916,409.46391 L 312.62916,408.04146 L 316.33312,409.73063 L 313.78448,404.9002 L 316.0373,402.91467 L 315.20767,406.32266 L 318.61484,409.46391 L 318.31903,413.43495 L 319.74125,406.88571 L 316.8968,401.75894 L 319.74125,404.33714 L 321.16348,400.06977 L 319.74125,397.22486 L 321.16348,394.08359 L 327.15011,390.67563 L 326.58739,388.39376 L 327.71284,389.81622 L 331.12097,387.53436 L 330.26147,386.1119 L 329.99456,387.8307 L 326.85333,385.8452 L 327.15011,379.29595 L 328.27653,378.7329 L 327.71284,377.31045 L 329.69874,377.31045 L 329.43183,373.60612 L 329.99456,375.32492 L 331.12097,373.30978 L 332.27725,374.16918 L 334.26219,370.76121 L 332.83998,369.33876 L 335.1217,369.33876 L 339.09255,363.35258 L 338.52983,366.19749 L 339.65624,365.63444 L 342.50069,364.21198 L 341.37428,366.49383 L 339.65624,365.63444 L 337.1076,371.05755 L 338.23306,374.16918 L 340.51478,374.73224 L 341.64119,368.47935 L 343.656,368.21264 L 343.06341,367.05689 L 347.92364,362.22647 L 348.75328,361.10035 L 347.36092,360.74474 L 349.61277,357.39603 L 349.90956,356.83297 L 349.34587,356.53662 L 348.19055,356.24028 L 348.19055,359.38154 L 347.33105,359.94461 L 347.92364,356.53662 L 346.50142,353.69172 L 345.64192,359.08521 L 347.2424,360.7151 L 345.3461,360.24094 L 342.23379,362.7895 L 337.37355,361.93011 L 335.68442,359.08521 L 334.26219,359.94461 L 334.26219,356.24028 L 332.54319,357.95908 L 331.68369,356.83297 L 329.13602,357.66274 L 332.83998,355.67723 L 334.26219,353.12866 L 332.27725,350.55046 L 328.27653,351.97291 L 324.57161,356.53662 L 319.74125,367.35324 L 321.46025,361.93011 L 320.60075,359.94461 L 325.1642,352.83231 L 325.4311,349.42434 L 325.72789,348.00189 L 340.51478,340.32654 L 340.81156,340.32654 L 341.07847,334.90342 L 344.21969,332.0585 L 345.0792,327.79114 L 343.06341,327.22807 L 344.4866,326.36867 L 342.23379,326.96137 L 343.656,326.10197 L 342.23379,325.80562 L 341.93797,323.25706 L 339.38933,322.39765 L 338.52983,324.94622 L 337.67033,322.69398 L 335.1217,322.9607 L 333.10688,327.79114 L 334.5291,323.25706 L 332.83998,325.53891 L 335.68442,320.67885 L 333.69947,320.97518 L 333.69947,320.11578 L 331.98047,321.53826 L 331.12097,320.41213 L 330.85406,321.53826 L 330.55825,320.41213 L 330.4985,321.03445 L 329.43183,321.83459 L 329.43183,320.67885 L 329.13602,321.27153 L 328.27653,322.9607 L 327.15011,319.55273 L 327.15011,320.97518 L 326.58739,319.84909 L 324.00889,320.41213 L 324.3047,318.98968 L 322.88248,319.84909 L 323.44617,318.98968 L 322.02297,318.98968 L 322.88248,318.13028 L 320.60075,318.42662 L 322.58666,317.83393 L 322.02297,315.84841 L 318.88175,315.58171 L 319.74125,314.42596 L 317.7563,313.86289 L 317.45952,312.73679 L 316.33312,314.42596 L 316.62989,311.87739 L 315.20767,313.56655 L 315.47362,311.31432 L 314.34817,310.15858 L 312.62916,311.01799 L 313.48867,309.89188 L 309.22103,307.87673 L 309.22103,306.75061 L 308.09462,306.75061 L 308.36153,309.59552 L 310.08054,310.72164 L 308.92522,311.87739 L 310.08054,312.14408 L 309.22103,313.86289 L 310.64326,315.84841 L 308.65831,313.86289 L 307.7988,318.42662 L 306.07981,316.41148 L 305.8129,319.25638 L 304.95339,315.84841 L 300.98254,317.56721 L 301.24945,316.14476 L 302.40476,316.70781 L 302.10894,314.42596 L 300.98254,314.98901 L 299.82722,312.44045 L 297.54549,313.00349 L 299.82722,311.87739 L 298.13809,307.87673 L 297.84131,309.29918 L 293.87045,309.03247 L 293.27786,307.31367 L 291.85564,307.87673 L 287.588,305.32816 L 286.75837,307.31367 L 280.47591,307.04695 L 279.64628,308.73612 L 281.89814,311.31432 L 281.63123,314.7223 L 283.05346,314.15924 L 284.74259,317.27088 L 283.91295,323.82009 L 288.18059,325.53891 L 291.85564,331.79179 L 291.85564,331.22874 L 293.57368,332.65119 L 291.85564,332.91791 L 291.85564,331.79179 L 290.72923,337.18528 L 286.46159,341.45265 L 289.01023,342.87511 L 293.01095,350.55046 L 291.85564,353.12866 L 293.27786,355.41052 L 291.29195,353.69172 L 290.72923,356.24028 L 290.1665,356.24028 L 288.4475,356.24028 L 288.18059,354.25478 L 282.19395,349.9874 L 279.64628,340.59325 L 272.53324,341.749 L 257.44956,334.63671 L 252.61921,336.91857 L 253.44883,334.90342 L 250.90021,329.21359 L 248.61848,329.21359 L 248.61848,330.63605 L 246.92934,328.08748 L 246.63257,321.83459 L 249.47798,316.41148 L 248.61848,315.58171 L 252.02662,312.44045 L 250.60439,311.58105 L 252.88611,311.58105 L 254.04143,309.89188 L 251.46389,307.87673 L 250.33748,308.73612 L 250.60439,307.61001 L 247.19626,307.31367 L 247.19626,305.8912 L 253.74562,308.73612 L 254.60512,305.62451 L 258.30907,305.0318 L 259.73129,300.76444 L 251.75971,298.51221 L 253.74562,297.91951 L 258.57598,299.93467 L 260.56092,296.23034 L 258.57598,294.8079 L 264.26584,295.6673 L 260.8577,292.82237 L 263.13943,292.52603 L 264.56165,294.51154 L 266.84337,289.38477 L 263.40633,285.9768 L 265.12533,284.85069 L 263.70215,283.9913 L 264.26584,282.56882 L 261.15352,282.00577 L 261.98411,281.14637 L 257.15279,281.44273 L 259.73129,285.41374 L 258.30907,285.71009 L 258.30907,291.66663 L 256.88684,292.82237 L 254.04143,285.71009 L 252.02662,284.55433 L 251.46389,289.11806 L 248.61848,284.55433 L 250.33748,283.9913 L 246.33676,283.42823 L 246.63257,282.27249 L 246.63257,281.14637 L 248.05575,281.44273 L 242.92862,274.59713 L 240.37999,279.42757 L 241.5064,279.72391 L 241.23949,282.56882 L 241.23949,283.13189 L 245.77403,284.85069 L 244.35084,285.11741 L 244.0849,287.39926 L 245.21034,286.27314 L 245.77403,287.96231 L 242.92862,290.24418 L 243.49134,293.9485 L 241.23949,292.82237 L 242.06912,289.38477 L 240.94271,290.54051 L 241.23949,289.38477 L 239.81726,288.55501 L 237.53553,289.11806 L 238.39504,291.10358 L 239.81726,290.80723 L 239.81726,292.82237 L 237.53553,290.24418 L 237.23876,291.96298 L 235.25284,292.22969 L 231.5489,292.22969 L 229.56395,289.97746 L 227.01532,289.97746 L 225.29631,286.53987 L 220.73286,288.8217 L 222.74769,289.68111 L 225.85903,287.96231 L 221.59141,291.10358 L 223.01459,293.9485 L 222.74769,295.07461 L 221.59141,294.51154 L 222.4509,297.08975 L 220.46596,293.9485 L 221.59141,293.0891 L 218.48005,289.68111 L 215.33882,290.80723 L 209.94573,289.38477 L 210.21168,287.69561 L 212.49437,287.39926 L 211.36796,285.11741 L 208.22673,284.28763 L 204.52279,281.14637 L 202.2401,279.16086 L 197.97342,279.72391 L 198.83293,277.17534 L 199.12874,276.58265 L 198.56602,277.17534 L 196.2843,279.42757 L 195.72061,276.0196 L 195.12801,273.47103 L 195.12801,275.45653 L 194.00161,275.45653 L 188.87543,276.58265 L 191.45393,274.59713 L 192.57938,273.73773 L 190.59443,274.33044 L 186.03001,275.1602 L 184.34088,274.89348 L 184.90457,272.90797 L 181.76335,273.73773 L 181.49644,276.31593 L 177.79152,270.06305 L 176.07348,266.62545 L 175.5098,265.79568 L 168.1019,258.95011 L 167.53821,257.26093 L 168.6945,256.66825 L 166.97549,255.24578 L 167.2713,253.55661 L 165.25649,253.82333 L 166.97549,252.99356 L 167.2713,251.83781 L 164.13008,252.13416 L 162.70785,250.7117 L 160.7229,251.57111 L 160.98885,250.97841 L 161.58145,250.7117 L 159.00391,249.8523 L 157.58168,250.14864 L 152.75036,250.97841 L 150.76541,248.9929 L 148.48368,249.55595 L 147.62419,254.11968 L 145.93506,255.83848 L 147.35727,258.38705 L 145.63827,259.8095 L 146.49778,261.52832 L 145.34246,259.8095 L 146.49778,257.52766 L 144.51283,261.23195 L 141.93433,258.38705 L 143.35655,256.40153 L 137.39978,254.41602 L 137.39978,257.82399 L 136.24446,256.96458 L 134.55533,259.51315 L 136.54028,263.51382 L 137.39978,262.95076 L 136.54028,264.07688 L 139.38569,264.07688 L 139.94841,265.49934 L 137.96346,265.49934 L 136.80719,267.7812 L 135.11805,268.34425 L 134.25856,266.92179 L 131.41411,267.21814 L 131.11732,265.203 L 123.44252,267.48484 L 122.58302,269.20365 L 123.44252,270.32976 L 122.31611,270.32976 L 122.58302,271.18916 L 123.17562,273.17469 L 121.75339,272.31528 L 119.47166,274.59713 L 122.58302,276.58265 L 119.73761,280.58333 L 117.48575,280.85002 L 120.89388,282.27249 L 120.89388,283.13189 L 120.3302,286.27314 L 123.17562,284.55433 L 122.01933,286.53987 L 124.86475,287.13254 L 122.01933,287.96231 L 119.17489,291.10358 L 112.62552,290.54051 L 111.79589,290.54051 L 110.07689,292.22969 L 108.65466,289.68111 L 105.80925,289.97746 L 106.10603,291.66663 L 108.09194,290.80723 L 107.52825,291.96298 L 110.64057,292.52603 L 110.93639,292.82237 L 110.37366,293.9485 L 122.58302,292.52603 L 125.72424,293.38543 L 129.13238,292.22969 L 128.27288,290.54051 L 129.4282,289.38477 L 140.5121,287.39926 L 142.79382,288.55501 L 140.5121,288.55501 L 141.07482,291.10358 L 139.6526,288.8217 L 137.39978,288.55501 L 133.69583,291.10358 L 135.11805,292.22969 L 132.27361,293.38543 L 136.54028,294.24484 L 137.39978,293.0891 L 137.10397,294.24484 L 138.22941,292.82237 L 139.38569,294.51154 L 141.37064,293.65214 L 141.37064,291.39992 L 144.21605,290.80723 L 142.79382,292.22969 L 144.21605,291.66663 L 143.65333,292.82237 L 145.93506,292.82237 L 144.51283,293.38543 L 145.34246,294.24484 L 144.21605,294.24484 L 145.34246,294.51154 L 144.51283,295.6673 L 146.20196,296.7934 L 145.93506,299.07527 L 151.03232,301.62384 L 151.62491,304.46875 L 152.45455,304.20204 L 153.87676,303.9057 L 154.46936,305.32816 L 153.04714,305.8912 L 153.87676,304.20204 L 152.18763,305.32816 L 154.73627,313.56655 L 156.15849,313.56655 L 155.89159,309.89188 L 156.72218,311.87739 L 157.58168,310.72164 L 156.45527,313.56655 L 157.87749,314.98901 L 160.15922,309.89188 L 158.737,314.7223 L 159.56663,315.84841 L 160.98885,314.98901 L 159.29972,316.70781 L 160.7229,318.13028 L 159.56663,318.13028 L 160.42613,319.84909 L 159.56663,318.42662 L 159.86341,320.11578 L 158.44022,320.41213 L 160.98885,326.10197 L 158.1444,328.08748 L 159.86341,327.52442 L 161.58145,326.96137 L 161.58145,328.65053 L 159.56663,332.65119 L 162.14513,330.93239 L 163.83426,328.65053 L 161.58145,332.0585 L 162.41204,332.91791 L 160.15922,333.48095 L 159.56663,334.63671 L 161.28563,336.05916 L 159.56663,336.62222 L 160.42613,339.76349 L 163.00464,337.74834 L 162.14513,339.46714 L 163.56736,340.32654 L 161.58145,339.1708 L 163.00464,343.73451 L 160.7229,344.86063 L 162.14513,344.29757 L 161.84836,345.72003 L 164.69377,344.59392 L 161.28563,347.43884 L 161.28563,349.128 L 162.70785,348.56493 L 160.7229,349.42434 L 162.41204,349.9874 L 160.42613,350.28373 L 163.27057,351.14314 L 160.7229,351.14314 L 164.13008,352.56561 L 163.00464,352.56561 L 163.56736,353.39537 L 165.84908,352.83231 L 163.27057,353.69172 L 164.42686,355.11418 L 165.55326,353.98806 L 164.69377,355.11418 L 166.08612,355.67723 L 165.84908,355.97358 L 168.1019,355.97358 L 166.11599,357.66274 L 167.2713,359.08521 L 168.39771,358.25544 L 168.96044,357.66274 L 168.96044,358.52215 L 169.25722,359.94461 L 167.83499,360.50767 L 170.11671,360.24094 L 169.25722,363.08587 L 170.67944,364.77504 L 168.96044,371.32427 L 169.25722,368.21264 L 166.97549,370.19815 L 169.25722,367.05689 L 164.13008,364.50832 L 163.56736,371.32427 L 164.69377,371.32427 L 163.00464,374.16918 L 164.69377,374.73224 L 163.27057,374.46552 L 157.31477,388.39376 L 157.018,394.64665 L 154.73627,398.64731 L 155.03305,406.02631 L 156.45527,410.59003 L 159.00391,410.88637 L 159.00391,413.73128 L 157.87749,412.01249 L 157.58168,414.56105 L 161.58145,425.11094 L 160.98885,427.65952 L 163.00464,428.78563 L 167.83499,431.63054 L 170.94635,435.89792 L 174.6503,450.98191 L 175.21398,452.13765 L 180.63694,458.9536 L 179.48066,460.93911 L 180.63694,462.36156 L 176.3693,461.23546 L 181.49644,466.62893 L 183.18557,465.76953 L 186.5937,470.0369 L 186.3268,475.46003 L 193.14306,481.71291 L 194.29838,484.55783 L 196.55024,483.69843 L 195.42479,479.99411 L 192.01666,478.30494 L 189.73493,468.61446 L 185.46729,462.65791 L 185.17052,459.813 L 179.48066,451.84131 L 179.21471,443.6029 L 185.46729,447.57393 L 186.88952,453.26376 L 187.74902,456.67173 L 187.71915,456.70137 L 186.88952,457.53113 L 187.74902,458.65724 L 187.74902,456.76063 L 188.01593,457.82748 L 191.71988,462.92462 L 194.00161,463.5173 L 193.70578,465.76953 L 198.83293,470.89631 L 197.70651,473.17818 L 202.83269,476.31944 L 202.83269,478.30494 L 210.77537,486.27664 L 213.61981,492.52952 L 212.19759,495.07809 L 213.35388,495.93748 L 211.36796,496.50055 L 212.19759,498.21935 L 220.46596,505.59835 L 227.01532,507.31715 L 230.6894,510.16207 L 235.25284,511.58453 L 250.0407,516.14824 L 259.73129,513.86639 L 269.17135,519.30129 L 270.92601,513.02098 L 276.37979,512.43016 L 276.26032,510.87577 L 272.32414,508.6416 L 273.69337,508.17453 L 273.66928,505.86952 L 281.32385,504.66927 L 284.59131,500.7557 z"
         id="path5345"
         sodipodi:nodetypes="cccccccccccccccccccccccccccccccccccccccccccccccccccccccccccccccccccccccccccccccccccccccccccccccccccccccccccccccccccccccccccccccccccccccccccccccccccccccccccccccccccccccccccccccccccccccccccccccccccccccccccccccccccccccccccccccccccccccccccccccccccccccccccccccccccccccccccccccccccccccccccccccccccccccccccccccccccccccccccccccccccccccccccccccccccccccccccccccccccccccccccccccccccccccccccccccccccccccccccccccccccccccccccccccccccccccccccccccccccccccccccccccccccccccccccccccccccccccccccccccccccccccccccccccccccccccccccccccccccccccccccccccccccccccccccccccccccccccccccccccccccccccccccccccccccccccccccccccccccccccccccccccccccccccccccccccccccccccccccccccccccccccccccccccccccccccccccccccccc" />
      <g
         style="fill:#008080"
         transform="translate(-72.57075,194.12718)"
         id="g5216">
        <g
           style="fill:#008080"
           id="g3829">
          <g
             style="fill:#008080"
             transform="matrix(0.9590971,0,0,0.9590971,657.24485,-62.356315)"
             id="g10978">
            <path
               id="path5317"
               d="M -442.92727,204.10192 L -444.10172,205.58503 L -443.515,206.17211 L -442.64999,205.33785 L -442.92727,204.10192 z"
               style="fill:#008080;fill-opacity:1;fill-rule:nonzero;stroke:none;stroke-width:0.69999999;stroke-miterlimit:4;stroke-dasharray:none;stroke-opacity:1" />
            <path
               id="path5315"
               d="M -442.64999,205.33785 L -443.82343,206.75917 L -442.34055,206.75917 L -442.64999,205.33785 z"
               style="fill:#008080;fill-opacity:1;fill-rule:nonzero;stroke:none;stroke-width:0.69999999;stroke-miterlimit:4;stroke-dasharray:none;stroke-opacity:1" />
            <path
               id="path5313"
               d="M -499.28669,164.95368 L -501.81944,165.23177 L -500.76957,165.23177 L -500.46013,166.12782 L -499.28669,164.95368 z"
               style="fill:#008080;fill-opacity:1;fill-rule:nonzero;stroke:none;stroke-width:0.69999999;stroke-miterlimit:4;stroke-dasharray:none;stroke-opacity:1" />
            <path
               id="path5311"
               d="M -501.81944,165.23177 L -501.66573,164.05763 L -504.63148,163.47056 L -503.1486,164.95368 L -501.94402,166.12782 L -501.81944,165.23177 z"
               style="fill:#008080;fill-opacity:1;fill-rule:nonzero;stroke:none;stroke-width:0.69999999;stroke-miterlimit:4;stroke-dasharray:none;stroke-opacity:1" />
            <path
               id="path5309"
               d="M -481.79757,145.36411 L -483.55874,145.05513 L -483.86817,146.26016 L -482.07586,146.53825 L -481.79757,145.36411 z"
               style="fill:#008080;fill-opacity:1;fill-rule:nonzero;stroke:none;stroke-width:0.69999999;stroke-miterlimit:4;stroke-dasharray:none;stroke-opacity:1" />
            <path
               id="path5299"
               d="M -476.45278,127.87564 L -477.93566,128.74079 L -477.93566,132.6031 L -476.14334,133.19015 L -476.45278,127.87564 z"
               style="fill:#008080;fill-opacity:1;fill-rule:nonzero;stroke:none;stroke-width:0.69999999;stroke-miterlimit:4;stroke-dasharray:none;stroke-opacity:1" />
            <path
               id="path5269"
               d="M -486.83393,142.98494 L -487.42166,146.26016 L -485.93777,146.26016 L -484.76433,144.46806 L -486.83393,142.98494 z"
               style="fill:#008080;fill-opacity:1;fill-rule:nonzero;stroke:none;stroke-width:0.69999999;stroke-miterlimit:4;stroke-dasharray:none;stroke-opacity:1" />
            <path
               id="path5257"
               d="M -508.77169,161.67846 L -509.91499,163.09979 L -507.87553,162.85259 L -508.77169,161.67846 z"
               style="fill:#008080;fill-opacity:1;fill-rule:nonzero;stroke:none;stroke-width:0.69999999;stroke-miterlimit:4;stroke-dasharray:none;stroke-opacity:1" />
            <path
               id="path5255"
               d="M -509.91499,163.09979 L -510.10085,163.09979 L -509.97728,163.16158 L -509.91499,163.09979 z"
               style="fill:#008080;fill-opacity:1;fill-rule:nonzero;stroke:none;stroke-width:0.69999999;stroke-miterlimit:4;stroke-dasharray:none;stroke-opacity:1" />
            <path
               id="path5253"
               d="M -510.10085,163.09979 L -512.04688,162.26552 L -510.564,163.16158 L -510.10085,163.09979 z"
               style="fill:#008080;fill-opacity:1;fill-rule:nonzero;stroke:none;stroke-width:0.69999999;stroke-miterlimit:4;stroke-dasharray:none;stroke-opacity:1" />
            <path
               id="path5249"
               d="M -475.86505,169.40305 L -477.0395,170.88618 L -474.66046,170.88618 L -475.86505,169.40305 z"
               style="fill:#008080;fill-opacity:1;fill-rule:nonzero;stroke:none;stroke-width:0.69999999;stroke-miterlimit:4;stroke-dasharray:none;stroke-opacity:1" />
            <path
               id="path5247"
               d="M -480.90141,169.99012 L -482.07586,170.57718 L -482.07586,172.64738 L -481.1797,172.64738 L -482.66258,173.54343 L -478.83181,173.54343 L -478.83181,172.36929 L -478.21395,173.54343 L -476.73006,172.0603 L -477.62622,170.26821 L -479.1101,171.16425 L -478.83181,169.99012 L -480.59298,172.36929 L -480.90141,169.99012 z"
               style="fill:#008080;fill-opacity:1;fill-rule:nonzero;stroke:none;stroke-width:0.69999999;stroke-miterlimit:4;stroke-dasharray:none;stroke-opacity:1" />
            <path
               id="path5233"
               d="M -443.515,174.13049 L -444.71959,176.81865 L -444.71959,174.71757 L -443.515,174.13049 z"
               style="fill:#008080;fill-opacity:1;fill-rule:nonzero;stroke:none;stroke-width:0.69999999;stroke-miterlimit:4;stroke-dasharray:none;stroke-opacity:1" />
            <path
               id="path5215"
               d="M -438.47864,182.44216 L -439.3748,186.58254 L -441.13596,186.89153 L -439.06536,184.23426 L -441.13596,183.6163 L -439.3748,183.92529 L -438.47864,182.44216 z"
               style="fill:#008080;fill-opacity:1;fill-rule:nonzero;stroke:none;stroke-width:0.69999999;stroke-miterlimit:4;stroke-dasharray:none;stroke-opacity:1" />
            <path
               id="path5193"
               d="M -447.68635,189.85776 L -448.55136,193.72006 L -447.68635,192.23694 L -446.48076,193.72006 L -447.37691,191.0319 L -446.20247,192.82401 L -445.30631,191.92796 L -447.68635,189.85776 z"
               style="fill:#008080;fill-opacity:1;fill-rule:nonzero;stroke:none;stroke-width:0.69999999;stroke-miterlimit:4;stroke-dasharray:none;stroke-opacity:1" />
            <path
               id="path5189"
               d="M -444.41116,190.44484 L -446.79019,196.37732 L -444.71959,195.48127 L -443.515,192.23694 L -444.41116,190.44484 z"
               style="fill:#008080;fill-opacity:1;fill-rule:nonzero;stroke:none;stroke-width:0.69999999;stroke-miterlimit:4;stroke-dasharray:none;stroke-opacity:1" />
            <path
               id="path5179"
               d="M -446.20247,196.9644 L -447.96363,201.13567 L -446.48076,198.44751 L -446.20247,196.9644 z"
               style="fill:#008080;fill-opacity:1;fill-rule:nonzero;stroke:none;stroke-width:0.69999999;stroke-miterlimit:4;stroke-dasharray:none;stroke-opacity:1" />
            <path
               id="path5177"
               d="M -445.5846,196.9644 L -446.20247,199.65256 L -444.99788,200.23961 L -443.82343,198.44751 L -445.5846,196.9644 z"
               style="fill:#008080;fill-opacity:1;fill-rule:nonzero;stroke:none;stroke-width:0.69999999;stroke-miterlimit:4;stroke-dasharray:none;stroke-opacity:1" />
            <path
               id="path5167"
               d="M -446.20247,199.93064 L -447.37691,203.20587 L -446.20247,203.79293 L -447.68635,204.99797 L -446.48076,206.75917 L -446.20247,208.55128 L -444.99788,206.17211 L -446.48076,204.99797 L -444.71959,205.27605 L -446.20247,199.93064 z"
               style="fill:#008080;fill-opacity:1;fill-rule:nonzero;stroke:none;stroke-width:0.69999999;stroke-miterlimit:4;stroke-dasharray:none;stroke-opacity:1" />
            <path
               id="path5143"
               d="M -449.75595,209.72542 L -450.6521,214.76186 L -448.85979,220.10727 L -449.75595,216.24498 L -448.27307,215.65791 L -449.75595,214.48377 L -446.20247,211.20854 L -449.44752,212.69167 L -447.96363,211.20854 L -449.75595,209.72542 z"
               style="fill:#008080;fill-opacity:1;fill-rule:nonzero;stroke:none;stroke-width:0.69999999;stroke-miterlimit:4;stroke-dasharray:none;stroke-opacity:1" />
            <path
               id="path5129"
               d="M -441.75383,217.14103 L -442.61884,219.82918 L -442.03112,219.5202 L -442.03112,221.59039 L -441.75383,217.14103 z"
               style="fill:#008080;fill-opacity:1;fill-rule:nonzero;stroke:none;stroke-width:0.69999999;stroke-miterlimit:4;stroke-dasharray:none;stroke-opacity:1" />
            <path
               id="path5127"
               d="M -437.30419,217.14103 L -434.029,217.45001 L -430.75381,219.82918 L -432.85455,220.10727 L -434.61572,217.45001 L -437.30419,218.62415 L -435.20345,217.45001 L -437.30419,217.14103 z"
               style="fill:#008080;fill-opacity:1;fill-rule:nonzero;stroke:none;stroke-width:0.69999999;stroke-miterlimit:4;stroke-dasharray:none;stroke-opacity:1" />
            <path
               id="path5103"
               d="M -444.71959,228.72791 L -444.41116,230.48912 L -442.34055,230.48912 L -444.41116,231.97225 L -442.34055,232.8683 L -442.03112,233.45537 L -440.26995,239.10977 L -437.58248,238.80079 L -439.06536,240.87096 L -434.33743,243.55912 L -436.99476,235.24747 L -437.58248,233.45537 L -444.71959,228.72791 z"
               style="fill:#008080;fill-opacity:1;fill-rule:nonzero;stroke:none;stroke-width:0.69999999;stroke-miterlimit:4;stroke-dasharray:none;stroke-opacity:1" />
          </g>
        </g>
        <path
           id="path5401"
           d="M 344.51182,19.867331 L 343.38638,21.289787 L 345.66811,22.445536 L 345.10442,23.304931 L 344.51182,23.571647 L 348.51255,26.712912 L 342.25996,23.867991 L 344.24491,26.712912 L 342.25996,25.290447 L 341.10369,28.994762 L 339.97824,27.839013 L 341.40047,24.994111 L 339.97824,23.008587 L 338.55506,24.727396 L 337.13283,23.867991 L 336.83702,28.402083 L 335.41382,26.712912 L 336.27333,23.867991 L 333.1321,27.572317 L 335.97751,29.261478 L 335.71061,29.261478 L 332.56938,29.557813 L 333.42888,30.980288 L 335.71061,29.824528 L 337.13283,30.417218 L 333.7247,31.543338 L 336.83702,31.543338 L 335.97751,32.402743 L 334.8511,31.839683 L 333.42888,32.402743 L 336.51037,32.669449 L 337.69651,33.262138 L 332.56938,33.528854 L 336.27333,35.514355 L 333.7247,35.514355 L 334.28838,36.936821 L 332.00666,35.24765 L 330.58347,37.233172 L 330.88025,37.529524 L 333.99161,38.359287 L 331.14716,37.79622 L 330.28765,38.359287 L 332.56938,40.641132 L 331.14716,40.641132 L 332.56938,41.796892 L 331.14716,41.204199 L 330.88025,44.345453 L 332.00666,45.204861 L 333.7247,44.049111 L 334.8511,47.753422 L 332.86615,48.909173 L 331.70988,53.17655 L 336.27333,54.302665 L 338.55506,52.583867 L 339.41455,53.739608 L 336.83702,54.865722 L 339.41455,54.302665 L 335.41382,56.288178 L 339.11874,56.288178 L 338.25924,57.710634 L 339.97824,58.570043 L 342.25996,58.273691 L 340.83775,57.443928 L 342.8227,57.443928 L 343.68219,55.428769 L 346.5276,54.865722 L 347.94983,55.428769 L 355.06192,57.443928 L 355.32882,59.429432 L 355.89154,58.273691 L 359.89227,61.711297 L 363.00362,62.541069 L 361.87818,63.400478 L 363.00362,63.133753 L 363.7157,64.526573 L 363.86313,65.978674 L 366.44163,65.385972 L 364.15991,62.541069 L 366.44163,64.259867 L 367.86386,62.837401 L 367.56804,64.822934 L 368.69349,63.400478 L 368.69349,65.385972 L 369.28608,64.259867 L 369.28608,65.119275 L 370.70927,64.556209 L 369.84976,65.385972 L 373.25791,66.24538 L 369.55299,66.808437 L 368.13076,68.527245 L 372.3984,68.527245 L 374.38335,66.808437 L 374.68012,67.10477 L 376.39913,70.246043 L 377.52457,69.386644 L 378.08826,70.512748 L 376.66507,70.246043 L 378.94776,71.935205 L 379.24357,73.654022 L 381.22949,73.357661 L 376.96185,75.076468 L 379.24357,74.780126 L 377.52457,75.639535 L 378.65099,77.625048 L 379.51048,74.513411 L 379.51048,75.343174 L 381.4964,73.654022 L 378.94776,78.188096 L 381.79221,76.202582 L 379.51048,79.047504 L 382.35493,78.484457 L 381.4964,80.203255 L 383.21444,79.610552 L 383.51121,77.061981 L 384.63762,76.76564 L 383.21444,82.188749 L 385.20034,80.469951 L 384.34085,82.751815 L 386.35566,83.314872 L 386.62257,80.766302 L 388.0448,80.469951 L 386.62257,83.611224 L 387.18626,83.048157 L 388.60848,85.03368 L 389.20107,83.611224 L 388.9043,85.300386 L 390.6233,86.722842 L 390.6233,83.611224 L 388.9043,82.455473 L 393.17193,83.87793 L 390.89021,84.470623 L 392.31243,84.174271 L 391.18602,86.722842 L 393.17193,85.03368 L 391.74971,87.019184 L 392.87611,86.456146 L 392.87611,88.145307 L 394.29834,87.019184 L 394.03143,88.44164 L 395.45366,87.58225 L 394.29834,88.737991 L 396.01735,87.878592 L 397.14279,89.864115 L 397.14279,88.145307 L 398.00228,90.723514 L 399.9882,90.160447 L 400.28402,91.582913 L 401.14352,90.427153 L 401.14352,91.849619 L 401.41043,90.723514 L 402.00301,91.849619 L 402.83265,91.582913 L 402.26992,92.709027 L 403.69215,91.286561 L 403.12943,92.709027 L 404.84843,91.582913 L 406.83337,93.005359 L 408.52251,88.737991 L 408.81929,91.582913 L 409.1151,89.567754 L 409.67878,91.849619 L 409.94473,90.160447 L 411.10101,91.286561 L 410.80424,89.567754 L 411.96051,92.14596 L 411.66373,89.864115 L 413.08596,91.849619 L 412.79014,90.160447 L 414.80497,89.567754 L 411.96051,89.567754 L 413.64965,87.878592 L 411.96051,87.878592 L 412.22742,86.159794 L 410.80424,87.019184 L 411.96051,85.893079 L 410.53829,85.893079 L 411.10101,84.470623 L 409.94473,85.03368 L 410.53829,83.611224 L 409.67878,84.174271 L 409.67878,82.455473 L 406.83337,82.188749 L 408.2556,81.625711 L 405.97388,81.625711 L 407.10028,79.610552 L 405.41116,78.780789 L 406.83337,78.484457 L 404.84843,78.188096 L 406.27065,77.625048 L 405.11437,77.625048 L 405.67806,76.202582 L 403.98893,76.498934 L 405.67806,75.639535 L 403.98893,74.780126 L 402.56574,75.343174 L 403.42524,73.654022 L 399.9882,72.498271 L 401.41043,71.668499 L 399.9882,70.246043 L 399.72129,69.949701 L 401.14352,67.667846 L 398.29907,65.385972 L 399.42451,64.822934 L 400.28402,66.541732 L 401.41043,66.24538 L 399.9882,65.385972 L 401.14352,65.682323 L 401.41043,63.400478 L 399.9882,63.133753 L 401.14352,61.978002 L 397.14279,57.147586 L 396.87588,55.162064 L 394.03143,54.302665 L 396.58007,54.302665 L 397.43956,52.583867 L 396.31316,51.754094 L 397.43956,51.754094 L 397.14279,47.486726 L 393.46871,40.937493 L 393.17193,40.374426 L 390.6233,42.922997 L 391.45293,45.767909 L 391.45293,46.06427 L 391.18602,46.330976 L 390.32748,46.894023 L 389.76379,44.049111 L 389.23094,45.353032 L 389.76379,42.626655 L 387.77885,42.063607 L 389.20107,45.441941 L 389.20107,45.471567 L 388.60848,46.894023 L 386.62257,44.049111 L 387.77885,43.486064 L 387.18626,41.500541 L 384.63762,44.049111 L 384.63762,42.626655 L 382.91862,42.922997 L 386.91935,40.641132 L 391.18602,40.937493 L 389.76379,39.515018 L 391.45293,40.078094 L 391.45293,38.95197 L 388.9043,38.95197 L 387.48207,37.79622 L 387.18626,38.359287 L 386.35566,37.529524 L 386.35566,38.655629 L 385.49616,37.79622 L 382.65172,38.655629 L 383.51121,40.078094 L 382.65172,39.515018 L 382.08898,40.374426 L 382.35493,38.655629 L 380.93271,38.655629 L 381.4964,40.374426 L 379.80726,40.641132 L 379.80726,38.092562 L 378.65099,40.374426 L 378.65099,38.95197 L 377.22876,39.218686 L 378.94776,38.655629 L 378.08826,36.936821 L 375.80653,37.233172 L 378.08826,36.670115 L 376.96185,36.107058 L 378.38408,34.684592 L 377.52457,36.107058 L 379.80726,35.514355 L 379.51048,33.262138 L 377.82136,32.669449 L 376.66507,33.528854 L 378.38408,34.388251 L 376.39913,34.388251 L 374.38335,33.262138 L 376.10235,31.839683 L 376.39913,31.543338 L 375.53963,30.683933 L 374.97594,31.543338 L 374.38335,32.106398 L 372.69422,31.246994 L 371.83471,32.669449 L 372.13149,30.980288 L 370.11667,32.106398 L 372.3984,30.683933 L 372.69422,30.417218 L 370.11667,29.557813 L 369.84976,29.824528 L 368.69349,30.980288 L 368.13076,29.261478 L 367.56804,30.683933 L 365.28631,30.683933 L 365.58213,28.698418 L 365.58213,27.275963 L 363.30041,26.712912 L 362.4409,27.839013 L 362.17399,28.402083 L 361.87818,27.572317 L 361.58141,26.979627 L 360.75177,27.275963 L 359.89227,27.572317 L 361.3145,28.698418 L 359.32955,28.135358 L 356.18832,25.853517 L 351.92069,23.571647 L 352.48341,24.994111 L 352.48341,25.290447 L 351.06119,24.994111 L 350.79428,24.727396 L 349.63896,22.149191 L 349.07624,24.134707 L 349.07624,24.727396 L 348.77946,24.134707 L 348.21673,21.289787 L 344.51182,19.867331 z"
           style="fill:#008080;fill-opacity:1;fill-rule:nonzero;stroke:none;stroke-width:0.69999999;stroke-miterlimit:4;stroke-dasharray:none;stroke-opacity:1" />
        <g
           id="g10928"
           style="fill:#008080;fill-opacity:1"
           transform="matrix(0.9590971,0,0,0.9590971,657.24485,-62.356315)">
          <path
             style="fill:#008080;fill-opacity:1;fill-rule:nonzero;stroke:none;stroke-width:0.69999999;stroke-miterlimit:4;stroke-dasharray:none;stroke-opacity:1"
             d="M -285.71707,148.02137 L -287.19995,149.22641 L -286.0255,149.22641 L -286.0255,150.70952 L -285.71707,148.02137 z"
             id="path5399" />
          <path
             style="fill:#008080;fill-opacity:1;fill-rule:nonzero;stroke:none;stroke-width:0.69999999;stroke-miterlimit:4;stroke-dasharray:none;stroke-opacity:1"
             d="M -290.16571,140.01869 L -292.23631,140.91475 L -292.82303,142.98494 L -290.16571,140.01869 z"
             id="path5397" />
          <path
             style="fill:#008080;fill-opacity:1;fill-rule:nonzero;stroke:none;stroke-width:0.69999999;stroke-miterlimit:4;stroke-dasharray:none;stroke-opacity:1"
             d="M -297.89054,94.937971 L -296.09822,96.112107 L -295.78979,94.937971 L -297.89054,94.937971 z"
             id="path5387" />
          <path
             style="fill:#008080;fill-opacity:1;fill-rule:nonzero;stroke:none;stroke-width:0.69999999;stroke-miterlimit:4;stroke-dasharray:none;stroke-opacity:1"
             d="M -292.82303,98.491293 L -294.02862,99.078356 L -293.4409,99.974412 L -292.82303,98.491293 z"
             id="path5379" />
          <path
             style="fill:#008080;fill-opacity:1;fill-rule:nonzero;stroke:none;stroke-width:0.69999999;stroke-miterlimit:4;stroke-dasharray:none;stroke-opacity:1"
             d="M -344.45452,102.3536 L -346.52512,104.1457 L -346.21569,102.94065 L -351.86991,104.1457 L -353.04436,105.31983 L -353.94052,106.49396 L -351.86991,108.28607 L -355.4234,107.39001 L -356.01012,108.59506 L -354.24895,109.46021 L -356.59784,108.87315 L -358.97688,110.94333 L -357.21571,110.94333 L -357.494,112.14837 L -355.73283,111.25231 L -356.90628,113.32251 L -353.63108,111.5613 L -356.59784,113.63149 L -354.83668,114.52755 L -351.86991,111.83939 L -353.63108,113.63149 L -353.63108,114.52755 L -352.14821,113.04443 L -350.97376,113.04443 L -351.56148,114.21856 L -350.0776,113.32251 L -349.80031,112.42645 L -348.59472,109.76919 L -349.18245,112.14837 L -347.42028,111.83939 L -349.49088,113.32251 L -351.28319,114.80562 L -348.31643,117.18481 L -351.56148,115.39271 L -353.94052,115.39271 L -349.80031,119.56399 L -348.31643,119.25498 L -349.49088,120.46003 L -348.31643,121.32519 L -350.97376,120.46003 L -352.45764,121.32519 L -352.45764,123.70436 L -351.28319,122.53022 L -350.38704,123.42627 L -350.38704,121.63417 L -349.18245,125.49646 L -347.42028,123.11729 L -348.59472,126.39252 L -352.76607,124.9094 L -350.66533,127.25767 L -353.35279,129.94583 L -351.86991,130.53289 L -352.14821,129.04977 L -350.66533,130.53289 L -350.97376,129.35876 L -349.80031,130.53289 L -350.0776,129.35876 L -348.31643,130.22392 L -347.69857,128.74079 L -346.21569,129.35876 L -346.83355,128.15372 L -345.35068,129.35876 L -346.21569,127.87564 L -343.55836,129.94583 L -342.66221,129.35876 L -341.17933,128.15372 L -341.76605,126.08354 L -343.8678,126.08354 L -345.9374,126.39252 L -346.83355,124.29142 L -344.45452,124.9094 L -342.97164,124.9094 L -343.55836,122.53022 L -341.48876,121.94314 L -342.97164,121.32519 L -341.48876,120.46003 L -343.24993,120.15104 L -341.76605,119.25498 L -345.9374,118.66792 L -342.38391,117.77186 L -345.9374,117.49378 L -342.38391,115.70168 L -343.8678,114.80562 L -341.48876,114.52755 L -341.76605,113.04443 L -343.24993,113.04443 L -341.76605,112.42645 L -342.97164,111.5613 L -341.76605,111.83939 L -341.17933,107.11193 L -343.55836,109.46021 L -342.66221,107.39001 L -344.73281,107.39001 L -342.38391,106.80296 L -341.76605,104.73275 L -342.07548,103.24964 L -344.45452,102.3536 z"
             id="path5373" />
          <path
             style="fill:#008080;fill-opacity:1;fill-rule:nonzero;stroke:none;stroke-width:0.69999999;stroke-miterlimit:4;stroke-dasharray:none;stroke-opacity:1"
             d="M -288.09611,102.3536 L -288.09611,104.1457 L -287.6631,103.62042 L -288.09611,104.73275 L -286.30379,104.73275 L -284.23319,103.52772 L -287.35467,103.24964 L -286.61323,102.3536 L -288.09611,102.3536 z"
             id="path5371" />
          <path
             style="fill:#008080;fill-opacity:1;fill-rule:nonzero;stroke:none;stroke-width:0.69999999;stroke-miterlimit:4;stroke-dasharray:none;stroke-opacity:1"
             d="M -288.68283,102.66257 L -290.75343,103.52772 L -290.16571,105.01085 L -288.68283,102.66257 z"
             id="path5367" />
          <path
             style="fill:#008080;fill-opacity:1;fill-rule:nonzero;stroke:none;stroke-width:0.69999999;stroke-miterlimit:4;stroke-dasharray:none;stroke-opacity:1"
             d="M -359.87304,112.14837 L -361.04648,114.21856 L -359.5636,115.39271 L -361.66535,116.01066 L -359.87304,117.49378 L -361.66535,116.87582 L -361.66535,117.77186 L -359.5636,118.08086 L -360.18147,120.15104 L -356.01012,119.84207 L -359.28531,121.0471 L -356.59784,122.53022 L -357.80243,123.11729 L -356.90628,124.01334 L -354.24895,124.01334 L -355.11396,122.22124 L -353.63108,123.70436 L -353.94052,120.46003 L -353.04436,121.94314 L -351.28319,118.97691 L -352.45764,117.77186 L -353.63108,118.35894 L -354.83668,115.11461 L -355.11396,116.59773 L -359.87304,112.14837 z"
             id="path5355" />
          <path
             style="fill:#008080;fill-opacity:1;fill-rule:nonzero;stroke:none;stroke-width:0.69999999;stroke-miterlimit:4;stroke-dasharray:none;stroke-opacity:1"
             d="M -369.08074,119.84207 L -368.77131,121.94314 L -367.28843,122.22124 L -368.46288,124.01334 L -366.979,123.42627 L -364.32268,124.9094 L -363.42652,125.49646 L -364.32268,122.8083 L -364.63111,121.94314 L -369.08074,119.84207 z"
             id="path5351" />
          <path
             style="fill:#008080;fill-opacity:1;fill-rule:nonzero;stroke:none;stroke-width:0.69999999;stroke-miterlimit:4;stroke-dasharray:none;stroke-opacity:1"
             d="M -374.11711,121.63417 L -376.49614,123.11729 L -372.91151,122.8083 L -374.11711,121.63417 z"
             id="path5349" />
          <path
             style="fill:#008080;fill-opacity:1;fill-rule:nonzero;stroke:none;stroke-width:0.69999999;stroke-miterlimit:4;stroke-dasharray:none;stroke-opacity:1"
             d="M -362.53036,121.94314 L -362.25207,124.9094 L -360.45976,125.49646 L -359.5636,123.42627 L -362.53036,121.94314 z"
             id="path5347" />
          <path
             style="fill:#008080;fill-opacity:1;fill-rule:nonzero;stroke:none;stroke-width:0.69999999;stroke-miterlimit:4;stroke-dasharray:none;stroke-opacity:1"
             d="M -377.08286,124.29142 L -377.36115,125.77455 L -375.29155,126.6706 L -374.11711,124.9094 L -377.08286,124.29142 z"
             id="path5307" />
          <path
             style="fill:#008080;fill-opacity:1;fill-rule:nonzero;stroke:none;stroke-width:0.69999999;stroke-miterlimit:4;stroke-dasharray:none;stroke-opacity:1"
             d="M -383.60311,125.49646 L -384.77655,126.39252 L -389.22619,129.63684 L -386.8783,129.04977 L -386.56886,130.53289 L -386.26043,130.84188 L -383.01538,127.56666 L -383.01538,129.63684 L -379.74019,126.39252 L -381.22407,125.49646 L -383.60311,125.49646 z"
             id="path5305" />
          <path
             style="fill:#008080;fill-opacity:1;fill-rule:nonzero;stroke:none;stroke-width:0.69999999;stroke-miterlimit:4;stroke-dasharray:none;stroke-opacity:1"
             d="M -358.39016,125.77455 L -360.76919,126.6706 L -357.80243,126.97958 L -358.39016,125.77455 z"
             id="path5303" />
          <path
             style="fill:#008080;fill-opacity:1;fill-rule:nonzero;stroke:none;stroke-width:0.69999999;stroke-miterlimit:4;stroke-dasharray:none;stroke-opacity:1"
             d="M -355.73283,126.39252 L -354.52724,127.56666 L -354.24895,126.39252 L -355.73283,126.39252 z"
             id="path5301" />
          <path
             style="fill:#008080;fill-opacity:1;fill-rule:nonzero;stroke:none;stroke-width:0.69999999;stroke-miterlimit:4;stroke-dasharray:none;stroke-opacity:1"
             d="M -373.80767,129.04977 L -375.59998,130.84188 L -374.70383,134.3952 L -377.36115,134.08621 L -380.32791,129.35876 L -381.5325,130.22392 L -380.32791,130.84188 L -383.01538,131.42895 L -380.94578,131.70703 L -383.91154,132.6031 L -381.5325,132.6031 L -385.08598,133.80813 L -383.01538,135.29126 L -380.63634,133.49914 L -380.94578,135.29126 L -377.36115,134.98225 L -381.81079,136.46539 L -379.74019,137.94851 L -374.70383,136.1564 L -371.42864,136.46539 L -370.56362,133.19015 L -371.73807,132.325 L -372.32479,134.08621 L -373.53038,133.19015 L -373.80767,129.04977 z"
             id="path5297" />
          <path
             style="fill:#008080;fill-opacity:1;fill-rule:nonzero;stroke:none;stroke-width:0.69999999;stroke-miterlimit:4;stroke-dasharray:none;stroke-opacity:1"
             d="M -361.04648,129.04977 L -359.28531,132.01602 L -356.59784,131.11998 L -354.83668,136.46539 L -351.86991,137.94851 L -350.38704,136.1564 L -349.18245,137.94851 L -344.14508,136.77436 L -344.45452,135.29126 L -342.07548,136.46539 L -340.28317,134.98225 L -339.69645,134.08621 L -340.59261,134.08621 L -341.17933,134.08621 L -340.90104,133.19015 L -340.90104,132.01602 L -341.48876,132.01602 L -343.55836,131.42895 L -348.59472,134.08621 L -351.56148,133.19015 L -351.56148,134.3952 L -353.04436,132.325 L -354.24895,133.19015 L -353.35279,132.01602 L -355.11396,131.42895 L -352.45764,131.11998 L -355.11396,130.53289 L -354.52724,129.94583 L -357.21571,131.11998 L -357.80243,129.04977 L -361.04648,129.04977 z"
             id="path5295" />
          <path
             style="fill:#008080;fill-opacity:1;fill-rule:nonzero;stroke:none;stroke-width:0.69999999;stroke-miterlimit:4;stroke-dasharray:none;stroke-opacity:1"
             d="M -383.60311,130.22392 L -386.26043,131.70703 L -384.77655,131.70703 L -383.60311,130.22392 z"
             id="path5293" />
          <path
             style="fill:#008080;fill-opacity:1;fill-rule:nonzero;stroke:none;stroke-width:0.69999999;stroke-miterlimit:4;stroke-dasharray:none;stroke-opacity:1"
             d="M -362.83879,130.22392 L -363.42652,131.42895 L -364.32268,131.11998 L -365.49612,130.84188 L -364.32268,133.19015 L -366.39227,131.11998 L -365.49612,133.80813 L -367.59787,134.3952 L -364.32268,134.08621 L -364.01324,134.08621 L -364.32268,134.67328 L -365.21783,135.56934 L -364.32268,137.05245 L -361.94264,136.77436 L -361.04648,135.29126 L -362.83879,130.22392 z"
             id="path5291" />
          <path
             style="fill:#008080;fill-opacity:1;fill-rule:nonzero;stroke:none;stroke-width:0.69999999;stroke-miterlimit:4;stroke-dasharray:none;stroke-opacity:1"
             d="M -358.08072,134.08621 L -360.18147,136.77436 L -356.31955,137.94851 L -358.08072,134.08621 z"
             id="path5289" />
          <path
             style="fill:#008080;fill-opacity:1;fill-rule:nonzero;stroke:none;stroke-width:0.69999999;stroke-miterlimit:4;stroke-dasharray:none;stroke-opacity:1"
             d="M -394.57198,134.98225 L -394.29369,137.63953 L -400.5045,143.29392 L -399.02062,143.881 L -398.4339,148.02137 L -394.29369,147.43431 L -393.0881,145.36411 L -392.50138,145.05513 L -384.18983,140.91475 L -386.26043,137.63953 L -388.36118,138.25749 L -389.22619,137.05245 L -390.43178,135.29126 L -394.57198,134.98225 z"
             id="path5287" />
          <path
             style="fill:#008080;fill-opacity:1;fill-rule:nonzero;stroke:none;stroke-width:0.69999999;stroke-miterlimit:4;stroke-dasharray:none;stroke-opacity:1"
             d="M -298.47726,136.77436 L -300.23943,137.94851 L -299.65171,138.53557 L -298.16883,140.01869 L -296.68595,138.84456 L -296.09822,140.32768 L -294.92478,137.94851 L -297.27267,137.05245 L -298.47726,136.77436 z"
             id="path5285" />
          <path
             style="fill:#008080;fill-opacity:1;fill-rule:nonzero;stroke:none;stroke-width:0.69999999;stroke-miterlimit:4;stroke-dasharray:none;stroke-opacity:1"
             d="M -338.80029,138.84456 L -339.69645,139.12265 L -337.93528,141.81081 L -337.62585,141.81081 L -336.4514,142.39787 L -332.28105,140.91475 L -335.24681,138.84456 L -338.80029,138.84456 z"
             id="path5283" />
          <path
             style="fill:#008080;fill-opacity:1;fill-rule:nonzero;stroke:none;stroke-width:0.69999999;stroke-miterlimit:4;stroke-dasharray:none;stroke-opacity:1"
             d="M -347.11184,140.01869 L -349.80031,143.29392 L -349.49088,150.40055 L -345.04124,150.70952 L -342.07548,150.12247 L -344.45452,147.43431 L -345.62897,144.46806 L -344.73281,140.01869 L -347.11184,140.01869 z"
             id="path5279" />
          <path
             style="fill:#008080;fill-opacity:1;fill-rule:nonzero;stroke:none;stroke-width:0.69999999;stroke-miterlimit:4;stroke-dasharray:none;stroke-opacity:1"
             d="M -351.86991,140.60577 L -358.39016,140.91475 L -357.21571,148.91742 L -355.11396,146.84725 L -356.31955,145.6731 L -353.35279,145.36411 L -351.86991,140.60577 z"
             id="path5277" />
          <path
             style="fill:#008080;fill-opacity:1;fill-rule:nonzero;stroke:none;stroke-width:0.69999999;stroke-miterlimit:4;stroke-dasharray:none;stroke-opacity:1"
             d="M -365.49612,141.50181 L -364.9094,143.29392 L -366.39227,142.98494 L -364.32268,143.881 L -364.01324,144.18997 L -364.32268,145.05513 L -364.63111,145.95119 L -367.28843,144.46806 L -368.18459,146.26016 L -364.32268,150.40055 L -363.14823,151.60558 L -361.66535,151.2966 L -361.66535,150.40055 L -359.87304,150.12247 L -359.5636,145.95119 L -362.25207,144.77705 L -360.45976,141.81081 L -364.32268,141.50181 L -365.49612,141.50181 z"
             id="path5275" />
          <path
             style="fill:#008080;fill-opacity:1;fill-rule:nonzero;stroke:none;stroke-width:0.69999999;stroke-miterlimit:4;stroke-dasharray:none;stroke-opacity:1"
             d="M -383.29367,141.81081 L -389.84405,144.18997 L -391.60522,146.84725 L -389.84405,147.74329 L -391.0185,148.63935 L -386.26043,148.91742 L -391.60522,149.81347 L -391.32693,151.88367 L -385.39441,152.47074 L -382.11922,154.57183 L -391.60522,154.26284 L -391.60522,154.57183 L -391.0185,157.22908 L -386.8783,159.60827 L -386.56886,161.98743 L -379.4619,161.98743 L -375.01326,159.02119 L -372.91151,161.67846 L -367.28843,161.36948 L -368.18459,159.29927 L -369.66747,161.09138 L -369.94576,158.40322 L -368.46288,159.29927 L -366.70171,157.53807 L -365.80555,158.71222 L -365.80555,157.22908 L -365.80555,156.64202 L -371.15034,152.77972 L -371.42864,145.36411 L -373.22095,143.29392 L -375.29155,143.572 L -375.59998,150.12247 L -377.67059,144.18997 L -378.84403,144.18997 L -377.97902,146.53825 L -379.15347,145.6731 L -379.74019,146.84725 L -381.22407,146.53825 L -379.74019,145.05513 L -381.5325,143.572 L -384.49926,145.05513 L -383.29367,141.81081 z"
             id="path5273" />
          <path
             style="fill:#008080;fill-opacity:1;fill-rule:nonzero;stroke:none;stroke-width:0.69999999;stroke-miterlimit:4;stroke-dasharray:none;stroke-opacity:1"
             d="M -372.91151,141.81081 L -373.53038,142.70685 L -371.15034,144.77705 L -370.25419,142.39787 L -372.91151,141.81081 z"
             id="path5271" />
          <path
             style="fill:#008080;fill-opacity:1;fill-rule:nonzero;stroke:none;stroke-width:0.69999999;stroke-miterlimit:4;stroke-dasharray:none;stroke-opacity:1"
             d="M -332.00276,153.95386 L -332.86778,154.57183 L -333.76393,155.15891 L -332.58948,155.15891 L -332.00276,153.95386 z"
             id="path5265" />
          <path
             style="fill:#008080;fill-opacity:1;fill-rule:nonzero;stroke:none;stroke-width:0.69999999;stroke-miterlimit:4;stroke-dasharray:none;stroke-opacity:1"
             d="M -361.04648,157.81616 L -362.53036,161.98743 L -358.39016,163.74863 L -356.31955,161.98743 L -361.04648,157.81616 z"
             id="path5263" />
          <path
             style="fill:#008080;fill-opacity:1;fill-rule:nonzero;stroke:none;stroke-width:0.69999999;stroke-miterlimit:4;stroke-dasharray:none;stroke-opacity:1"
             d="M -320.13773,158.71222 L -321.62061,159.29927 L -319.24157,159.29927 L -320.13773,158.71222 z"
             id="path5261" />
          <path
             style="fill:#008080;fill-opacity:1;fill-rule:nonzero;stroke:none;stroke-width:0.69999999;stroke-miterlimit:4;stroke-dasharray:none;stroke-opacity:1"
             d="M -325.17409,159.02119 L -323.9685,163.47056 L -321.62061,161.98743 L -322.20733,159.29927 L -325.17409,159.02119 z"
             id="path5259" />
        </g>
        <g
           style="fill:#008080"
           id="g10962"
           transform="matrix(0.9590971,0,0,0.9590971,657.24485,-62.356315)">
          <path
             style="fill:#008080;fill-opacity:1;fill-rule:nonzero;stroke:none;stroke-width:0.69999999;stroke-miterlimit:4;stroke-dasharray:none;stroke-opacity:1"
             d="M -340.59261,139.43163 L -344.45452,141.81081 L -342.38391,142.70685 L -344.73281,142.98494 L -342.38391,143.881 L -345.04124,143.572 L -341.76605,146.84725 L -343.55836,145.95119 L -344.45452,147.15622 L -341.76605,148.33037 L -341.48876,151.2966 L -342.07548,150.40055 L -348.59472,151.88367 L -347.11184,153.95386 L -345.35068,154.84992 L -343.24993,153.3668 L -342.07548,155.43698 L -341.48876,155.43698 L -335.55625,154.57183 L -336.4514,154.26284 L -338.21257,153.3668 L -335.83353,154.26284 L -334.07236,155.15891 L -335.24681,153.95386 L -335.83353,153.67578 L -333.17621,153.67578 L -331.10661,153.3668 L -331.69333,153.08871 L -333.17621,151.88367 L -332.58948,150.40055 L -330.21045,152.77972 L -329.036,153.67578 L -328.72757,152.47074 L -328.41814,153.95386 L -326.93526,153.3668 L -325.17409,154.57183 L -325.76081,157.22908 L -324.58737,155.43698 L -321.8989,156.92011 L -321.31117,156.05496 L -316.27481,160.50432 L -316.5531,163.16158 L -314.79193,162.85259 L -316.5531,163.47056 L -317.75869,166.4368 L -314.79193,168.78507 L -318.34541,170.88618 L -321.62061,170.88618 L -321.31117,175.33554 L -314.4835,173.54343 L -315.68809,171.47323 L -312.72233,173.23444 L -312.99962,171.75133 L -310.34229,174.71757 L -307.0671,174.71757 L -308.55098,175.9226 L -307.0671,176.81865 L -294.02862,177.09675 L -303.51462,172.36929 L -300.23943,172.95635 L -301.72231,171.47323 L -293.71919,173.54343 L -297.27267,169.40305 L -294.61535,170.88618 L -296.40766,168.19802 L -299.06498,167.61094 L -298.16883,166.71489 L -300.23943,165.54074 L -300.8573,167.02387 L -302.34018,165.54074 L -301.72231,167.02387 L -304.9975,163.74863 L -305.89366,165.23177 L -307.65483,162.85259 L -305.30593,162.26552 L -308.27269,160.50432 L -306.17195,159.60827 L -303.82305,161.09138 L -303.82305,159.60827 L -303.20519,161.67846 L -302.03074,159.02119 L -302.34018,161.98743 L -296.99438,163.74863 L -299.65171,159.88636 L -297.27267,160.50432 L -299.37342,158.71222 L -297.27267,158.40322 L -299.65171,157.81616 L -297.58211,156.92011 L -299.37342,156.33304 L -298.16883,155.43698 L -300.23943,154.57183 L -300.23943,156.64202 L -301.13458,155.43698 L -302.34018,156.92011 L -302.61847,154.26284 L -302.61847,156.33304 L -302.9269,154.84992 L -304.10135,156.64202 L -303.51462,155.15891 L -304.9975,155.43698 L -303.82305,154.84992 L -305.89366,153.67578 L -306.48038,154.84992 L -306.48038,155.15891 L -307.96326,153.95386 L -307.37654,155.43698 L -308.27269,153.67578 L -308.27269,155.15891 L -309.13771,153.67578 L -309.44714,154.57183 L -310.62058,153.3668 L -311.82618,154.26284 L -310.34229,152.77972 L -315.07022,153.08871 L -312.72233,152.19266 L -314.20521,150.98762 L -315.07022,152.19266 L -314.20521,150.70952 L -315.96638,150.70952 L -312.10346,150.12247 L -313.58735,149.22641 L -317.75869,150.70952 L -314.20521,148.33037 L -314.79193,147.43431 L -315.07022,147.43431 L -316.86254,146.53825 L -317.44926,148.33037 L -317.44926,147.43431 L -318.93214,148.91742 L -317.44926,145.95119 L -319.82829,145.6731 L -320.41602,147.43431 L -320.41602,145.36411 L -321.00274,149.5045 L -321.31117,147.43431 L -322.20733,148.33037 L -321.8989,145.05513 L -323.38178,147.74329 L -323.10348,144.77705 L -325.45238,143.881 L -326.07025,146.84725 L -327.24369,143.881 L -328.13985,146.84725 L -328.41814,144.77705 L -329.31429,145.05513 L -328.41814,142.98494 L -331.10661,144.77705 L -330.51888,141.81081 L -334.07236,141.81081 L -334.96852,143.29392 L -332.28105,143.881 L -334.96852,144.18997 L -332.58948,145.6731 L -336.72969,143.572 L -336.72969,144.18997 L -337.31741,146.26016 L -337.62585,142.70685 L -340.59261,139.43163 z"
             id="path5281" />
          <path
             style="fill:#008080;fill-opacity:1;fill-rule:nonzero;stroke:none;stroke-width:0.69999999;stroke-miterlimit:4;stroke-dasharray:none;stroke-opacity:1"
             d="M -335.24681,171.16425 L -334.07236,172.36929 L -332.58948,172.36929 L -335.24681,171.16425 z"
             id="path5243" />
          <path
             style="fill:#008080;fill-opacity:1;fill-rule:nonzero;stroke:none;stroke-width:0.69999999;stroke-miterlimit:4;stroke-dasharray:none;stroke-opacity:1"
             d="M -337.31741,172.36929 L -336.4514,180.37198 L -337.93528,183.02923 L -334.96852,181.85509 L -333.48564,184.23426 L -330.21045,178.88885 L -328.72757,180.65005 L -325.45238,180.95904 L -324.27793,179.16693 L -326.34854,177.99279 L -328.13985,179.16693 L -328.41814,176.81865 L -334.66009,173.85241 L -335.24681,175.02654 L -337.31741,172.36929 z"
             id="path5239" />
          <path
             style="fill:#008080;fill-opacity:1;fill-rule:nonzero;stroke:none;stroke-width:0.69999999;stroke-miterlimit:4;stroke-dasharray:none;stroke-opacity:1"
             d="M -291.06186,177.09675 L -292.54575,177.99279 L -291.06186,178.57986 L -291.06186,177.09675 z"
             id="path5229" />
          <path
             style="fill:#008080;fill-opacity:1;fill-rule:nonzero;stroke:none;stroke-width:0.69999999;stroke-miterlimit:4;stroke-dasharray:none;stroke-opacity:1"
             d="M -318.93214,179.47592 L -320.72445,179.7849 L -319.24157,180.95904 L -318.93214,179.47592 z"
             id="path5225" />
          <path
             style="fill:#008080;fill-opacity:1;fill-rule:nonzero;stroke:none;stroke-width:0.69999999;stroke-miterlimit:4;stroke-dasharray:none;stroke-opacity:1"
             d="M -326.34854,183.6163 L -328.72757,184.51234 L -330.21045,186.58254 L -329.31429,187.78758 L -326.34854,183.6163 z"
             id="path5211" />
          <path
             style="fill:#008080;fill-opacity:1;fill-rule:nonzero;stroke:none;stroke-width:0.69999999;stroke-miterlimit:4;stroke-dasharray:none;stroke-opacity:1"
             d="M -321.31117,184.51234 L -321.00274,187.78758 L -320.13773,186.30445 L -321.31117,184.51234 z"
             id="path5209" />
          <path
             style="fill:#008080;fill-opacity:1;fill-rule:nonzero;stroke:none;stroke-width:0.69999999;stroke-miterlimit:4;stroke-dasharray:none;stroke-opacity:1"
             d="M -306.17195,188.06565 L -305.30593,189.2707 L -309.13771,189.54878 L -306.17195,188.06565 z"
             id="path5199" />
        </g>
        <g
           id="g11003"
           style="fill:#008080;fill-opacity:1"
           transform="matrix(0.9590971,0,0,0.9590971,657.24485,-62.356315)">
          <path
             style="fill:#008080;fill-opacity:1;fill-rule:nonzero;stroke:none;stroke-width:0.69999999;stroke-miterlimit:4;stroke-dasharray:none;stroke-opacity:1"
             d="M -305.89366,193.41109 L -305.58422,193.41109 L -303.20519,193.99815 L -306.48038,194.30714 L -305.89366,193.41109 z"
             id="path5185" />
          <path
             style="fill:#008080;fill-opacity:1;fill-rule:nonzero;stroke:none;stroke-width:0.69999999;stroke-miterlimit:4;stroke-dasharray:none;stroke-opacity:1"
             d="M -302.03074,202.03173 L -302.9269,203.51485 L -301.72231,203.79293 L -304.40978,204.99797 L -302.03074,202.03173 z"
             id="path5161" />
          <path
             style="fill:#008080;fill-opacity:1;fill-rule:nonzero;stroke:none;stroke-width:0.69999999;stroke-miterlimit:4;stroke-dasharray:none;stroke-opacity:1"
             d="M -300.54786,207.34625 L -300.23943,207.34625 L -298.75555,208.55128 L -300.8573,208.55128 L -300.54786,207.34625 z"
             id="path5149" />
          <path
             style="fill:#008080;fill-opacity:1;fill-rule:nonzero;stroke:none;stroke-width:0.69999999;stroke-miterlimit:4;stroke-dasharray:none;stroke-opacity:1"
             d="M -312.4129,209.44733 L -312.99962,213.00064 L -311.51674,211.79561 L -311.23845,212.69167 L -311.23845,211.79561 L -312.4129,209.44733 z"
             id="path5145" />
          <path
             style="fill:#008080;fill-opacity:1;fill-rule:nonzero;stroke:none;stroke-width:0.69999999;stroke-miterlimit:4;stroke-dasharray:none;stroke-opacity:1"
             d="M -312.72233,225.76168 L -314.79193,227.2448 L -310.93002,227.83185 L -312.72233,225.76168 z"
             id="path5115" />
        </g>
        <g
           style="fill:#008080"
           id="g10972"
           transform="matrix(0.9590971,0,0,0.9590971,657.24485,-62.356315)">
          <path
             style="fill:#008080;fill-opacity:1;fill-rule:nonzero;stroke:none;stroke-width:0.69999999;stroke-miterlimit:4;stroke-dasharray:none;stroke-opacity:1"
             d="M -248.94752,206.48109 L -249.81253,212.41357 L -248.63909,215.37983 L -247.46464,217.7281 L -248.63909,218.62415 L -246.84678,219.82918 L -248.32965,219.82918 L -248.94752,223.96957 L -246.56849,222.17747 L -247.74293,226.34874 L -246.56849,227.2448 L -245.08561,225.1437 L -240.91426,223.96957 L -239.73981,220.69434 L -239.15309,223.3825 L -236.46462,220.41626 L -237.67021,225.1437 L -235.8779,223.66058 L -235.59961,218.62415 L -234.11673,219.82918 L -233.22057,222.79542 L -232.91114,220.10727 L -231.7377,222.48644 L -230.5321,221.89938 L -231.7377,217.45001 L -232.63285,216.86295 L -233.22057,218.62415 L -233.80729,215.65791 L -233.80729,218.93314 L -235.29017,218.34607 L -234.98174,217.14103 L -236.18633,216.86295 L -234.98174,214.17479 L -237.08249,216.55396 L -237.9475,212.10459 L -240.04925,213.58771 L -240.91426,212.41357 L -241.53213,215.96689 L -242.11885,213.58771 L -243.88002,215.37983 L -243.88002,212.41357 L -245.3639,213.58771 L -245.67233,213.27872 L -245.98176,212.69167 L -245.98176,213.58771 L -245.98176,215.96689 L -246.25905,213.8967 L -247.15521,208.2423 L -248.63909,207.65523 L -247.46464,207.06815 L -248.94752,206.48109 z"
             id="path5153" />
          <path
             style="fill:#008080;fill-opacity:1;fill-rule:nonzero;stroke:none;stroke-width:0.69999999;stroke-miterlimit:4;stroke-dasharray:none;stroke-opacity:1"
             d="M -271.19471,212.41357 L -269.09296,213.58771 L -270.29856,213.8967 L -271.19471,212.41357 z"
             id="path5135" />
          <path
             style="fill:#008080;fill-opacity:1;fill-rule:nonzero;stroke:none;stroke-width:0.69999999;stroke-miterlimit:4;stroke-dasharray:none;stroke-opacity:1"
             d="M -259.60797,223.3825 L -264.36604,224.86563 L -256.64121,225.1437 L -256.64121,223.96957 L -259.60797,223.3825 z"
             id="path5119" />
          <path
             style="fill:#008080;fill-opacity:1;fill-rule:nonzero;stroke:none;stroke-width:0.69999999;stroke-miterlimit:4;stroke-dasharray:none;stroke-opacity:1"
             d="M -251.01813,235.83453 L -256.05449,238.49181 L -257.53736,236.14353 L -257.53736,238.49181 L -252.501,239.10977 L -251.01813,235.83453 z"
             id="path5089" />
        </g>
      </g>
      <g
         transform="translate(-72.57075,194.12718)"
         style="fill:#ffffff;fill-opacity:1"
         id="g4079">
        <g
           style="fill:#ffffff;fill-opacity:1"
           id="g3966">
          <g
             style="fill:#ffffff;fill-opacity:1"
             id="g3894">
            <path
               id="path5171"
               d="M 391.45293,128.27047 L 392.04552,129.39658 L 390.6233,129.12988 L 391.45293,128.27047 z"
               style="fill:#ffffff;fill-opacity:1;fill-rule:nonzero;stroke:none;stroke-width:0.69999999;stroke-miterlimit:4;stroke-dasharray:none;stroke-opacity:1" />
            <path
               id="path5165"
               d="M 388.9043,129.98927 L 389.76379,131.11538 L 388.34157,131.11538 L 388.9043,129.98927 z"
               style="fill:#ffffff;fill-opacity:1;fill-rule:nonzero;stroke:none;stroke-width:0.69999999;stroke-miterlimit:4;stroke-dasharray:none;stroke-opacity:1" />
            <path
               id="path5159"
               d="M 393.73466,133.66396 L 396.58007,135.94581 L 398.29907,135.38276 L 396.31316,137.10156 L 394.59415,136.80521 L 394.03143,138.79073 L 395.45366,139.65013 L 394.29834,139.94648 L 393.73466,138.22768 L 389.76379,136.50887 L 390.6233,137.93132 L 388.34157,134.81969 L 393.46871,137.93132 L 394.29834,137.10156 L 394.03143,136.80521 L 395.45366,135.94581 L 393.73466,133.66396 z"
               style="fill:#ffffff;fill-opacity:1;fill-rule:nonzero;stroke:none;stroke-width:0.69999999;stroke-miterlimit:4;stroke-dasharray:none;stroke-opacity:1" />
            <path
               id="path5141"
               d="M 382.08898,139.35377 L 382.65172,140.21318 L 381.22949,141.36892 L 382.08898,139.35377 z"
               style="fill:#ffffff;fill-opacity:1;fill-rule:nonzero;stroke:none;stroke-width:0.69999999;stroke-miterlimit:4;stroke-dasharray:none;stroke-opacity:1" />
            <path
               id="path5133"
               d="M 387.77885,141.93198 L 388.34157,144.21386 L 386.91935,144.48056 L 387.77885,141.93198 z"
               style="fill:#ffffff;fill-opacity:1;fill-rule:nonzero;stroke:none;stroke-width:0.69999999;stroke-miterlimit:4;stroke-dasharray:none;stroke-opacity:1" />
            <path
               id="path5121"
               d="M 391.45293,149.60733 L 392.04552,154.73411 L 389.85244,152.18553 L 389.76379,152.1559 L 389.79367,152.09664 L 388.60848,150.73345 L 391.45293,149.60733 z"
               style="fill:#ffffff;fill-opacity:1;fill-rule:nonzero;stroke:none;stroke-width:0.69999999;stroke-miterlimit:4;stroke-dasharray:none;stroke-opacity:1" />
            <path
               id="path5111"
               d="M 390.89021,155.00082 L 392.60921,157.57902 L 393.46871,158.70513 L 392.04552,157.84573 L 391.18602,157.28268 L 390.89021,155.00082 z"
               style="fill:#ffffff;fill-opacity:1;fill-rule:nonzero;stroke:none;stroke-width:0.69999999;stroke-miterlimit:4;stroke-dasharray:none;stroke-opacity:1" />
            <path
               id="path5105"
               d="M 380.93271,155.86022 L 379.24357,162.40944 L 378.65099,158.43843 L 380.93271,155.86022 z"
               style="fill:#ffffff;fill-opacity:1;fill-rule:nonzero;stroke:none;stroke-width:0.69999999;stroke-miterlimit:4;stroke-dasharray:none;stroke-opacity:1" />
            <path
               id="path5101"
               d="M 389.46798,159.56454 L 392.04552,161.28334 L 390.0307,160.42394 L 388.60848,162.40944 L 389.46798,159.56454 z"
               style="fill:#ffffff;fill-opacity:1;fill-rule:nonzero;stroke:none;stroke-width:0.69999999;stroke-miterlimit:4;stroke-dasharray:none;stroke-opacity:1" />
            <path
               id="path5095"
               d="M 371.83471,160.42394 L 370.70927,162.1131 L 369.84976,160.69064 L 371.83471,160.42394 z"
               style="fill:#ffffff;fill-opacity:1;fill-rule:nonzero;stroke:none;stroke-width:0.69999999;stroke-miterlimit:4;stroke-dasharray:none;stroke-opacity:1" />
            <path
               id="path5093"
               d="M 375.80653,160.987 L 377.22876,161.28334 L 376.66507,162.97251 L 375.80653,160.987 z"
               style="fill:#ffffff;fill-opacity:1;fill-rule:nonzero;stroke:none;stroke-width:0.69999999;stroke-miterlimit:4;stroke-dasharray:none;stroke-opacity:1" />
            <path
               id="path5091"
               d="M 370.41249,163.8319 L 370.70927,163.8319 L 371.5389,165.25436 L 371.5389,165.55073 L 370.11667,166.97317 L 370.41249,165.55073 L 370.41249,163.8319 z"
               style="fill:#ffffff;fill-opacity:1;fill-rule:nonzero;stroke:none;stroke-width:0.69999999;stroke-miterlimit:4;stroke-dasharray:none;stroke-opacity:1" />
          </g>
          <g
             style="fill:#ffffff;fill-opacity:1"
             id="g3855">
            <path
               id="path5267"
               d="M 255.48985,82.751815 L 253.47502,87.315545 L 258.03847,90.160447 L 258.60119,94.694521 L 257.17898,97.272737 L 261.74242,102.36989 L 261.44661,104.38503 L 261.44661,102.36989 L 257.17898,97.272737 L 258.33526,94.990882 L 257.17898,89.864115 L 254.06762,89.004706 L 252.91134,86.456146 L 255.48985,82.751815 z"
               style="fill:#ffffff;fill-opacity:1;fill-rule:nonzero;stroke:none;stroke-width:0.69999999;stroke-miterlimit:4;stroke-dasharray:none;stroke-opacity:1" />
            <path
               id="path5251"
               d="M 273.68584,96.413329 L 273.98165,96.413329 L 275.10805,97.539453 L 272.82633,98.398851 L 272.82633,98.961918 L 275.10805,99.821317 L 277.09397,98.695193 L 275.67078,102.66622 L 272.55942,101.54012 L 272.26264,103.52562 L 271.1372,103.79233 L 268.55869,104.65173 L 270.84042,102.10316 L 267.13647,103.79233 L 264.85475,102.10316 L 268.29179,100.38436 L 267.43228,99.25825 L 270.27769,99.821317 L 267.43228,98.10251 L 264.02511,98.695193 L 264.29106,96.976395 L 273.68584,96.413329 z"
               style="fill:#ffffff;fill-opacity:1;fill-rule:nonzero;stroke:none;stroke-width:0.69999999;stroke-miterlimit:4;stroke-dasharray:none;stroke-opacity:1" />
            <path
               id="path5245"
               d="M 283.93914,100.94743 L 285.06555,100.94743 L 284.50186,102.96257 L 283.93914,100.94743 z"
               style="fill:#ffffff;fill-opacity:1;fill-rule:nonzero;stroke:none;stroke-width:0.69999999;stroke-miterlimit:4;stroke-dasharray:none;stroke-opacity:1" />
            <path
               id="path5241"
               d="M 312.65535,102.10316 L 312.65535,102.36989 L 313.21807,103.52562 L 311.79585,104.08869 L 312.65535,102.10316 z"
               style="fill:#ffffff;fill-opacity:1;fill-rule:nonzero;stroke:none;stroke-width:0.69999999;stroke-miterlimit:4;stroke-dasharray:none;stroke-opacity:1" />
            <path
               id="path5237"
               d="M 287.34728,103.79233 L 290.19172,107.49666 L 289.629,108.6524 L 287.34728,103.79233 z"
               style="fill:#ffffff;fill-opacity:1;fill-rule:nonzero;stroke:none;stroke-width:0.69999999;stroke-miterlimit:4;stroke-dasharray:none;stroke-opacity:1" />
            <path
               id="path5235"
               d="M 281.65742,104.08869 L 285.06555,106.37054 L 284.76877,107.49666 L 281.65742,104.08869 z"
               style="fill:#ffffff;fill-opacity:1;fill-rule:nonzero;stroke:none;stroke-width:0.69999999;stroke-miterlimit:4;stroke-dasharray:none;stroke-opacity:1" />
            <path
               id="path5231"
               d="M 310.37266,104.65173 L 308.12081,106.07421 L 307.82402,106.07421 L 304.6828,105.2148 L 307.82402,104.94809 L 310.37266,104.65173 z"
               style="fill:#ffffff;fill-opacity:1;fill-rule:nonzero;stroke:none;stroke-width:0.69999999;stroke-miterlimit:4;stroke-dasharray:none;stroke-opacity:1" />
            <path
               id="path5227"
               d="M 286.48778,109.48217 L 289.629,109.48217 L 287.0505,110.34157 L 286.48778,109.48217 z"
               style="fill:#ffffff;fill-opacity:1;fill-rule:nonzero;stroke:none;stroke-width:0.69999999;stroke-miterlimit:4;stroke-dasharray:none;stroke-opacity:1" />
            <path
               id="path5223"
               d="M 285.36137,110.07486 L 286.78359,111.49733 L 284.20605,110.90462 L 285.36137,110.07486 z"
               style="fill:#ffffff;fill-opacity:1;fill-rule:nonzero;stroke:none;stroke-width:0.69999999;stroke-miterlimit:4;stroke-dasharray:none;stroke-opacity:1" />
            <path
               id="path5221"
               d="M 313.21807,110.07486 L 313.51389,110.07486 L 310.66944,111.76402 L 307.82402,111.20098 L 306.40181,110.63793 L 307.82402,110.63793 L 313.21807,110.07486 z"
               style="fill:#ffffff;fill-opacity:1;fill-rule:nonzero;stroke:none;stroke-width:0.69999999;stroke-miterlimit:4;stroke-dasharray:none;stroke-opacity:1" />
            <path
               id="path5219"
               d="M 291.61395,110.63793 L 293.89664,112.91977 L 289.03641,112.06037 L 291.61395,110.63793 z"
               style="fill:#ffffff;fill-opacity:1;fill-rule:nonzero;stroke:none;stroke-width:0.69999999;stroke-miterlimit:4;stroke-dasharray:none;stroke-opacity:1" />
            <path
               id="path5217"
               d="M 272.55942,111.20098 L 273.38905,113.18649 L 271.40411,111.49733 L 272.55942,111.20098 z"
               style="fill:#ffffff;fill-opacity:1;fill-rule:nonzero;stroke:none;stroke-width:0.69999999;stroke-miterlimit:4;stroke-dasharray:none;stroke-opacity:1" />
            <path
               id="path5213"
               d="M 311.52894,113.18649 L 313.51389,113.18649 L 312.95117,114.0459 L 311.52894,113.18649 z"
               style="fill:#ffffff;fill-opacity:1;fill-rule:nonzero;stroke:none;stroke-width:0.69999999;stroke-miterlimit:4;stroke-dasharray:none;stroke-opacity:1" />
            <path
               id="path5207"
               d="M 275.67078,115.172 L 280.23519,119.43937 L 286.19099,116.32774 L 289.629,117.45387 L 286.48778,117.45387 L 287.91,117.75021 L 285.62827,118.0169 L 287.61419,118.0169 L 285.06555,118.60961 L 278.24929,123.44003 L 275.67078,123.44003 L 270.5446,120.59512 L 270.33648,120.26914 L 265.71424,119.43937 L 269.71497,119.17266 L 270.33648,120.26914 L 270.5446,120.29878 L 270.5446,120.59512 L 273.98165,122.01758 L 275.40387,119.73571 L 277.38978,119.43937 L 275.67078,115.172 z"
               style="fill:#ffffff;fill-opacity:1;fill-rule:nonzero;stroke:none;stroke-width:0.69999999;stroke-miterlimit:4;stroke-dasharray:none;stroke-opacity:1" />
            <path
               id="path5205"
               d="M 286.48778,117.45387 L 284.50186,117.45387 L 283.93914,118.60961 L 286.48778,117.45387 z"
               style="fill:#ffffff;fill-opacity:1;fill-rule:nonzero;stroke:none;stroke-width:0.69999999;stroke-miterlimit:4;stroke-dasharray:none;stroke-opacity:1" />
            <path
               id="path5203"
               d="M 306.40181,115.172 L 305.5423,118.60961 L 303.55736,117.18714 L 306.40181,115.172 z"
               style="fill:#ffffff;fill-opacity:1;fill-rule:nonzero;stroke:none;stroke-width:0.69999999;stroke-miterlimit:4;stroke-dasharray:none;stroke-opacity:1" />
            <path
               id="path5201"
               d="M 312.65535,117.45387 L 313.51389,119.73571 L 311.23217,118.87631 L 312.65535,117.45387 z"
               style="fill:#ffffff;fill-opacity:1;fill-rule:nonzero;stroke:none;stroke-width:0.69999999;stroke-miterlimit:4;stroke-dasharray:none;stroke-opacity:1" />
            <path
               id="path5197"
               d="M 307.2613,118.87631 L 307.82402,120.29878 L 308.12081,121.45453 L 307.82402,121.15817 L 306.69858,120.59512 L 307.2613,118.87631 z"
               style="fill:#ffffff;fill-opacity:1;fill-rule:nonzero;stroke:none;stroke-width:0.69999999;stroke-miterlimit:4;stroke-dasharray:none;stroke-opacity:1" />
            <path
               id="path5195"
               d="M 289.629,119.43937 L 287.61419,122.87699 L 287.0505,121.72123 L 289.629,119.43937 z"
               style="fill:#ffffff;fill-opacity:1;fill-rule:nonzero;stroke:none;stroke-width:0.69999999;stroke-miterlimit:4;stroke-dasharray:none;stroke-opacity:1" />
            <path
               id="path5191"
               d="M 303.85317,119.73571 L 304.97958,119.73571 L 303.55736,121.15817 L 303.85317,119.73571 z"
               style="fill:#ffffff;fill-opacity:1;fill-rule:nonzero;stroke:none;stroke-width:0.69999999;stroke-miterlimit:4;stroke-dasharray:none;stroke-opacity:1" />
            <path
               id="path5187"
               d="M 297.30381,121.72123 L 297.86749,122.87699 L 295.58577,124.56615 L 297.30381,121.72123 z"
               style="fill:#ffffff;fill-opacity:1;fill-rule:nonzero;stroke:none;stroke-width:0.69999999;stroke-miterlimit:4;stroke-dasharray:none;stroke-opacity:1" />
            <path
               id="path5181"
               d="M 299.85244,126.28495 L 298.43021,128.5668 L 298.43021,126.848 L 299.85244,126.28495 z"
               style="fill:#ffffff;fill-opacity:1;fill-rule:nonzero;stroke:none;stroke-width:0.69999999;stroke-miterlimit:4;stroke-dasharray:none;stroke-opacity:1" />
            <path
               id="path5175"
               d="M 310.66944,126.55167 L 308.95044,128.83352 L 309.80994,129.69291 L 308.38771,129.39658 L 308.95044,131.97479 L 307.82402,131.11538 L 307.52821,130.81904 L 307.82402,129.69291 L 308.12081,127.70741 L 310.66944,126.55167 z"
               style="fill:#ffffff;fill-opacity:1;fill-rule:nonzero;stroke:none;stroke-width:0.69999999;stroke-miterlimit:4;stroke-dasharray:none;stroke-opacity:1" />
            <path
               id="path5173"
               d="M 302.69785,127.41108 L 303.26058,130.55232 L 301.83836,129.39658 L 302.69785,127.41108 z"
               style="fill:#ffffff;fill-opacity:1;fill-rule:nonzero;stroke:none;stroke-width:0.69999999;stroke-miterlimit:4;stroke-dasharray:none;stroke-opacity:1" />
            <path
               id="path5169"
               d="M 297.86749,128.5668 L 298.43021,130.55232 L 296.74109,130.55232 L 297.86749,128.5668 z"
               style="fill:#ffffff;fill-opacity:1;fill-rule:nonzero;stroke:none;stroke-width:0.69999999;stroke-miterlimit:4;stroke-dasharray:none;stroke-opacity:1" />
            <path
               id="path5163"
               d="M 286.48778,130.81904 L 294.16259,132.83419 L 286.48778,132.83419 L 282.51691,135.08641 L 281.92433,133.9603 L 281.65742,133.9603 L 286.48778,130.81904 z"
               style="fill:#ffffff;fill-opacity:1;fill-rule:nonzero;stroke:none;stroke-width:0.69999999;stroke-miterlimit:4;stroke-dasharray:none;stroke-opacity:1" />
            <path
               id="path5155"
               d="M 248.94048,135.38276 L 249.79998,138.79073 L 253.77084,139.94648 L 250.06689,139.08708 L 250.3627,143.0581 L 248.94048,135.38276 z"
               style="fill:#ffffff;fill-opacity:1;fill-rule:nonzero;stroke:none;stroke-width:0.69999999;stroke-miterlimit:4;stroke-dasharray:none;stroke-opacity:1" />
            <path
               id="path5151"
               d="M 301.00872,136.50887 L 300.14922,139.65013 L 298.727,139.65013 L 299.28972,137.10156 L 301.00872,136.50887 z"
               style="fill:#ffffff;fill-opacity:1;fill-rule:nonzero;stroke:none;stroke-width:0.69999999;stroke-miterlimit:4;stroke-dasharray:none;stroke-opacity:1" />
            <path
               id="path5147"
               d="M 303.55736,138.22768 L 302.99367,143.35445 L 299.5865,146.19936 L 300.14922,143.62116 L 300.14922,145.33996 L 301.57145,144.21386 L 300.71195,141.07258 L 303.55736,138.22768 z"
               style="fill:#ffffff;fill-opacity:1;fill-rule:nonzero;stroke:none;stroke-width:0.69999999;stroke-miterlimit:4;stroke-dasharray:none;stroke-opacity:1" />
            <path
               id="path5139"
               d="M 292.74036,139.65013 L 293.30404,141.07258 L 290.75541,141.63565 L 292.74036,139.65013 z"
               style="fill:#ffffff;fill-opacity:1;fill-rule:nonzero;stroke:none;stroke-width:0.69999999;stroke-miterlimit:4;stroke-dasharray:none;stroke-opacity:1" />
            <path
               id="path5137"
               d="M 312.38844,140.21318 L 312.09166,142.79139 L 308.38771,144.21386 L 310.66944,143.0581 L 312.38844,140.21318 z"
               style="fill:#ffffff;fill-opacity:1;fill-rule:nonzero;stroke:none;stroke-width:0.69999999;stroke-miterlimit:4;stroke-dasharray:none;stroke-opacity:1" />
            <path
               id="path5131"
               d="M 286.48778,142.79139 L 286.60629,143.20628 L 287.91,144.7769 L 287.34728,145.84375 L 287.34728,145.90302 L 287.25766,145.99192 L 285.92506,148.48121 L 285.06555,145.90302 L 286.19099,147.05877 L 287.25766,145.99192 L 287.34728,145.84375 L 286.60629,143.20628 L 286.48778,143.0581 L 286.48778,142.79139 z"
               style="fill:#ffffff;fill-opacity:1;fill-rule:nonzero;stroke:none;stroke-width:0.69999999;stroke-miterlimit:4;stroke-dasharray:none;stroke-opacity:1" />
            <path
               id="path5123"
               d="M 306.69858,147.05877 L 307.82402,149.04428 L 306.10599,148.74793 L 306.69858,147.05877 z"
               style="fill:#ffffff;fill-opacity:1;fill-rule:nonzero;stroke:none;stroke-width:0.69999999;stroke-miterlimit:4;stroke-dasharray:none;stroke-opacity:1" />
            <path
               id="path5113"
               d="M 312.95117,154.43775 L 313.81067,155.86022 L 318.34521,168.39563 L 317.2188,172.07031 L 316.92202,166.67683 L 315.4998,167.53623 L 314.6403,164.39497 L 313.21807,165.25436 L 310.66944,161.28334 L 311.79585,160.69064 L 312.09166,160.42394 L 309.80994,159.26819 L 310.66944,157.01596 L 313.51389,157.57902 L 312.95117,154.43775 z"
               style="fill:#ffffff;fill-opacity:1;fill-rule:nonzero;stroke:none;stroke-width:0.69999999;stroke-miterlimit:4;stroke-dasharray:none;stroke-opacity:1" />
            <path
               id="path5109"
               d="M 307.52821,155.29716 L 307.52821,157.28268 L 307.82402,157.01596 L 308.95044,156.42328 L 307.82402,157.28268 L 307.82402,158.70513 L 309.54303,160.42394 L 307.82402,159.86088 L 305.27636,158.70513 L 306.96549,158.14208 L 307.52821,155.29716 z"
               style="fill:#ffffff;fill-opacity:1;fill-rule:nonzero;stroke:none;stroke-width:0.69999999;stroke-miterlimit:4;stroke-dasharray:none;stroke-opacity:1" />
            <path
               id="path5097"
               d="M 304.97958,160.1276 L 306.69858,160.1276 L 307.82402,160.69064 L 308.68353,161.28334 L 308.38771,166.97317 L 307.82402,162.70579 L 307.82402,161.55005 L 304.97958,161.28334 L 304.97958,160.1276 z"
               style="fill:#ffffff;fill-opacity:1;fill-rule:nonzero;stroke:none;stroke-width:0.69999999;stroke-miterlimit:4;stroke-dasharray:none;stroke-opacity:1" />
            <path
               id="path5087"
               d="M 310.10671,166.11376 L 312.95117,172.92971 L 310.96622,168.39563 L 309.24722,167.23989 L 310.10671,166.11376 z"
               style="fill:#ffffff;fill-opacity:1;fill-rule:nonzero;stroke:none;stroke-width:0.69999999;stroke-miterlimit:4;stroke-dasharray:none;stroke-opacity:1" />
          </g>
        </g>
        <g
           id="g3803"
           style="fill:#ffffff;fill-opacity:1">
          <path
             style="fill:#ffffff;fill-opacity:1;fill-rule:nonzero;stroke:none;stroke-width:0.69999999;stroke-miterlimit:4;stroke-dasharray:none;stroke-opacity:1"
             d="M 288.7695,167.80293 L 289.89591,168.95869 L 285.36137,170.0848 L 288.20678,169.2254 L 288.7695,167.80293 z"
             id="path5085" />
          <path
             style="fill:#ffffff;fill-opacity:1;fill-rule:nonzero;stroke:none;stroke-width:0.69999999;stroke-miterlimit:4;stroke-dasharray:none;stroke-opacity:1"
             d="M 380.36998,168.09929 L 382.35493,169.52173 L 379.51048,169.2254 L 380.36998,168.09929 z"
             id="path5083" />
          <path
             style="fill:#ffffff;fill-opacity:1;fill-rule:nonzero;stroke:none;stroke-width:0.69999999;stroke-miterlimit:4;stroke-dasharray:none;stroke-opacity:1"
             d="M 331.70988,169.81808 L 331.44297,171.80361 L 329.45802,172.36665 L 327.1763,170.64786 L 329.72397,171.50726 L 331.70988,169.81808 z"
             id="path5081" />
          <path
             style="fill:#ffffff;fill-opacity:1;fill-rule:nonzero;stroke:none;stroke-width:0.69999999;stroke-miterlimit:4;stroke-dasharray:none;stroke-opacity:1"
             d="M 340.83775,170.38114 L 341.96319,171.50726 L 341.96319,171.80361 L 341.40047,174.64851 L 339.11874,172.92971 L 339.97824,171.80361 L 340.83775,170.38114 z"
             id="path5079" />
          <path
             style="fill:#ffffff;fill-opacity:1;fill-rule:nonzero;stroke:none;stroke-width:0.69999999;stroke-miterlimit:4;stroke-dasharray:none;stroke-opacity:1"
             d="M 392.04552,173.49277 L 386.44527,181.82007 L 386.62257,181.76081 L 382.65172,187.45063 L 381.4964,189.43615 L 382.65172,191.71802 L 380.93271,193.70352 L 372.3984,195.98538 L 373.82063,193.14048 L 379.51048,191.42167 L 380.07321,189.9992 L 378.08826,190.56227 L 382.65172,187.45063 L 386.44527,181.82007 L 379.80726,183.74631 L 386.35566,181.76081 L 392.04552,173.49277 z"
             id="path5077" />
          <path
             style="fill:#ffffff;fill-opacity:1;fill-rule:nonzero;stroke:none;stroke-width:0.69999999;stroke-miterlimit:4;stroke-dasharray:none;stroke-opacity:1"
             d="M 323.47139,173.78911 L 325.19039,176.63403 L 322.90866,176.63403 L 325.19039,177.19709 L 321.75239,178.61954 L 323.47139,175.21158 L 321.75239,175.50792 L 323.47139,173.78911 z"
             id="path5075" />
          <path
             style="fill:#ffffff;fill-opacity:1;fill-rule:nonzero;stroke:none;stroke-width:0.69999999;stroke-miterlimit:4;stroke-dasharray:none;stroke-opacity:1"
             d="M 376.66507,174.35217 L 377.82136,177.19709 L 376.10235,176.07097 L 376.66507,174.35217 z"
             id="path5073" />
          <path
             style="fill:#ffffff;fill-opacity:1;fill-rule:nonzero;stroke:none;stroke-width:0.69999999;stroke-miterlimit:4;stroke-dasharray:none;stroke-opacity:1"
             d="M 341.96319,176.07097 L 347.35724,176.33768 L 349.63896,179.47894 L 352.78019,178.91589 L 354.76513,185.16877 L 366.44163,185.16877 L 369.55299,188.0137 L 370.70927,189.13981 L 370.11667,190.56227 L 370.11667,191.15494 L 367.27126,191.15494 L 364.42682,188.8731 L 366.44163,191.42167 L 366.14486,197.11149 L 364.42682,199.09701 L 362.17399,195.12598 L 359.03277,197.11149 L 360.455,193.99987 L 359.32955,189.9992 L 354.20241,188.57674 L 353.34291,193.40718 L 352.78019,191.42167 L 351.06119,193.99987 L 352.48341,201.37887 L 352.48341,201.67521 L 351.92069,206.50564 L 349.63896,208.22445 L 346.79355,201.37887 L 347.65305,194.26658 L 345.66811,194.82963 L 347.94983,189.13981 L 349.37205,190.29556 L 352.21746,187.45063 L 357.04782,187.15429 L 355.62464,185.46513 L 353.34291,185.46513 L 353.34291,184.30938 L 346.5276,186.59123 L 344.8086,185.16877 L 342.8227,186.02818 L 341.96319,184.04266 L 337.13283,187.71735 L 335.41382,187.71735 L 335.71061,186.02818 L 332.00666,187.15429 L 339.68146,178.61954 L 341.10369,178.91589 L 341.40047,176.93037 L 341.40047,178.61954 L 342.52687,177.76014 L 341.96319,176.07097 z"
             id="path5071" />
          <path
             style="fill:#ffffff;fill-opacity:1;fill-rule:nonzero;stroke:none;stroke-width:0.69999999;stroke-miterlimit:4;stroke-dasharray:none;stroke-opacity:1"
             d="M 327.44224,178.0565 L 330.28765,180.60506 L 327.44224,179.47894 L 327.44224,178.0565 z"
             id="path5069" />
          <path
             style="fill:#ffffff;fill-opacity:1;fill-rule:nonzero;stroke:none;stroke-width:0.69999999;stroke-miterlimit:4;stroke-dasharray:none;stroke-opacity:1"
             d="M 298.99295,182.02751 L 300.14922,183.74631 L 301.00872,182.88692 L 301.00872,184.60572 L 304.41686,184.87243 L 300.41613,184.87243 L 299.28972,182.62021 L 296.44527,182.32386 L 298.99295,182.02751 z"
             id="path5067" />
          <path
             style="fill:#ffffff;fill-opacity:1;fill-rule:nonzero;stroke:none;stroke-width:0.69999999;stroke-miterlimit:4;stroke-dasharray:none;stroke-opacity:1"
             d="M 369.28608,182.62021 L 370.41249,183.18327 L 368.42755,183.44997 L 367.00435,183.44997 L 368.42755,182.88692 L 369.28608,182.62021 z"
             id="path5065" />
          <path
             style="fill:#ffffff;fill-opacity:1;fill-rule:nonzero;stroke:none;stroke-width:0.69999999;stroke-miterlimit:4;stroke-dasharray:none;stroke-opacity:1"
             d="M 289.33222,182.88692 L 288.7695,184.30938 L 288.47272,183.18327 L 283.93914,184.60572 L 283.34655,183.44997 L 289.33222,182.88692 z"
             id="path5063" />
          <path
             style="fill:#ffffff;fill-opacity:1;fill-rule:nonzero;stroke:none;stroke-width:0.69999999;stroke-miterlimit:4;stroke-dasharray:none;stroke-opacity:1"
             d="M 305.83909,188.8731 L 306.69858,198.8303 L 303.85317,197.67455 L 305.83909,196.25209 L 305.83909,188.8731 z"
             id="path5059" />
          <path
             style="fill:#ffffff;fill-opacity:1;fill-rule:nonzero;stroke:none;stroke-width:0.69999999;stroke-miterlimit:4;stroke-dasharray:none;stroke-opacity:1"
             d="M 375.24285,196.25209 L 374.97594,198.53395 L 372.69422,200.81581 L 367.86386,205.37952 L 362.17399,205.37952 L 363.86313,200.81581 L 365.01941,201.94192 L 363.30041,202.80133 L 363.86313,203.95708 L 367.27126,200.81581 L 372.13149,199.39336 L 370.97618,199.39336 L 372.13149,198.53395 L 375.24285,196.25209 z"
             id="path5057" />
          <path
             style="fill:#ffffff;fill-opacity:1;fill-rule:nonzero;stroke:none;stroke-width:0.69999999;stroke-miterlimit:4;stroke-dasharray:none;stroke-opacity:1"
             d="M 309.80994,201.11216 L 312.65535,205.08318 L 310.10671,203.09768 L 309.80994,201.11216 z"
             id="path5055" />
          <path
             style="fill:#ffffff;fill-opacity:1;fill-rule:nonzero;stroke:none;stroke-width:0.69999999;stroke-miterlimit:4;stroke-dasharray:none;stroke-opacity:1"
             d="M 265.44734,207.9281 L 267.69919,211.63243 L 266.86956,210.77302 L 266.27696,212.49181 L 265.44734,207.9281 z"
             id="path5053" />
          <path
             style="fill:#ffffff;fill-opacity:1;fill-rule:nonzero;stroke:none;stroke-width:0.69999999;stroke-miterlimit:4;stroke-dasharray:none;stroke-opacity:1"
             d="M 271.40411,225.857 L 270.27769,228.70191 L 267.13647,229.56131 L 271.40411,225.857 z"
             id="path5049" />
          <path
             style="fill:#ffffff;fill-opacity:1;fill-rule:nonzero;stroke:none;stroke-width:0.69999999;stroke-miterlimit:4;stroke-dasharray:none;stroke-opacity:1"
             d="M 256.91206,229.56131 L 256.91206,231.25047 L 257.7417,230.98376 L 258.89798,233.236 L 257.7417,231.25047 L 254.89725,231.54683 L 256.91206,229.56131 z"
             id="path5045" />
          <path
             style="fill:#ffffff;fill-opacity:1;fill-rule:nonzero;stroke:none;stroke-width:0.69999999;stroke-miterlimit:4;stroke-dasharray:none;stroke-opacity:1"
             d="M 372.13149,238.65911 L 372.96112,239.78523 L 371.5389,240.08157 L 372.13149,238.65911 z"
             id="path5041" />
          <path
             style="fill:#ffffff;fill-opacity:1;fill-rule:nonzero;stroke:none;stroke-width:0.69999999;stroke-miterlimit:4;stroke-dasharray:none;stroke-opacity:1"
             d="M 320.62693,244.61566 L 320.62693,245.77141 L 318.90794,245.47507 L 320.62693,244.61566 z"
             id="path5039" />
          <path
             style="fill:#ffffff;fill-opacity:1;fill-rule:nonzero;stroke:none;stroke-width:0.69999999;stroke-miterlimit:4;stroke-dasharray:none;stroke-opacity:1"
             d="M 269.98092,263.40395 L 271.69992,264.26335 L 270.27769,265.38946 L 269.98092,263.40395 z"
             id="path5037" />
          <path
             style="fill:#ffffff;fill-opacity:1;fill-rule:nonzero;stroke:none;stroke-width:0.69999999;stroke-miterlimit:4;stroke-dasharray:none;stroke-opacity:1"
             d="M 382.91862,265.95252 L 383.21444,268.23438 L 381.79221,267.37499 L 382.91862,265.95252 z"
             id="path5033" />
          <path
             style="fill:#ffffff;fill-opacity:1;fill-rule:nonzero;stroke:none;stroke-width:0.69999999;stroke-miterlimit:4;stroke-dasharray:none;stroke-opacity:1"
             d="M 293.59986,303.52912 L 295.58577,303.52912 L 296.44527,304.09217 L 293.59986,303.52912 z"
             id="path5005" />
          <path
             style="fill:#ffffff;fill-opacity:1;fill-rule:nonzero;stroke:none;stroke-width:0.69999999;stroke-miterlimit:4;stroke-dasharray:none;stroke-opacity:1"
             d="M 298.727,309.48565 L 302.13513,310.90812 L 299.85244,310.6414 L 300.14922,312.06386 L 298.727,309.48565 z"
             id="path5001" />
        </g>
      </g>
    </g>
  </g>
</svg>
