<svg width="210" height="210" viewBox="0 0 210 210" fill="none" xmlns="http://www.w3.org/2000/svg">
<g filter="url(#filter0_d)">
<circle cx="102" cy="102" r="98.5" stroke="#176C6C" stroke-width="3"/>
</g>
<path d="M113.156 51C113.156 52.6875 112.828 53.8125 112.172 54.375C111.547 54.9062 110.859 55.1719 110.109 55.1719C110.078 55.1719 110.047 55.1719 110.016 55.1719C109.266 55.1719 108.047 54.8438 106.359 54.1875C104.641 53.5 102.609 53.1562 100.266 53.1562C97.9531 53.1562 96.25 53.5625 95.1562 54.375C94.0938 55.1875 93.3594 56.375 92.9531 57.9375C92.5781 59.4688 92.0781 65.9219 91.4531 77.2969C90.8594 88.6406 90.5625 95.0469 90.5625 96.5156C90.5625 97.9531 90.875 99.8594 91.5 102.234C92.125 104.609 92.4375 105.906 92.4375 106.125C92.4375 107.656 91.7344 108.844 90.3281 109.688C88.9531 110.531 87.0312 110.953 84.5625 110.953C82.0938 110.953 80.1875 110.547 78.8438 109.734C77.5 108.891 76.8281 107.734 76.8281 106.266C76.8281 105.609 77.3125 104.219 78.2812 102.094C79.2812 99.9375 79.9219 97.8281 80.2031 95.7656C81.3906 86.6094 81.9844 75.625 81.9844 62.8125C81.9844 58.9688 81.5469 56.4375 80.6719 55.2188C79.7969 53.9688 78.2656 53.3438 76.0781 53.3438C73.8906 53.3438 71.5312 53.8281 69 54.7969C66.4688 55.7344 64.9219 56.2031 64.3594 56.2031C62.8281 56.2031 62.0625 54.5938 62.0625 51.375C62.0625 48.1562 63.5625 46.2969 66.5625 45.7969C69.5625 45.2656 79.0156 45 94.9219 45H97.6406L100.312 44.9531C106.125 44.9531 109.422 45.0781 110.203 45.3281C112.172 45.9531 113.156 47.4844 113.156 49.9219V51Z" fill="#176C6C"/>
<path d="M114.133 124.195L113.352 119.312C113.352 117.75 114.042 116.578 115.422 115.797C116.828 114.99 118.56 114.586 120.617 114.586H122.023C122.857 114.586 123.638 114.846 124.367 115.367C125.122 115.888 125.5 116.552 125.5 117.359C125.5 118.167 125.161 119.299 124.484 120.758C123.807 122.19 123.365 124.026 123.156 126.266C122.01 139.365 121.438 149.651 121.438 157.125C121.438 158.974 121.607 160.38 121.945 161.344L122.453 162.516C122.974 163.688 123.234 164.443 123.234 164.781C123.234 166.214 122.766 167.203 121.828 167.75C120.891 168.271 119.445 168.531 117.492 168.531C115.539 168.531 113.99 168.141 112.844 167.359C111.724 166.552 111.164 165.732 111.164 164.898C111.164 164.065 111.464 162.529 112.062 160.289C112.661 158.023 112.961 155.029 112.961 151.305C112.961 147.581 112.466 145.38 111.477 144.703C110.487 144 107.206 143.648 101.633 143.648C96.0859 143.648 92.6224 144.326 91.2422 145.68C89.862 147.034 89.1719 151.227 89.1719 158.258C89.1719 159.247 89.224 160.146 89.3281 160.953L89.5234 162.125C89.7318 163.323 89.8359 164.039 89.8359 164.273C89.8359 166.956 87.401 168.297 82.5312 168.297C80.8906 168.297 79.7188 167.997 79.0156 167.398C78.3385 166.773 78 166.083 78 165.328C78 164.547 78.3516 163.453 79.0547 162.047C79.7839 160.615 80.2526 159.13 80.4609 157.594C81.5286 149.26 82.0625 138.648 82.0625 125.758C82.0625 124.221 81.737 122.698 81.0859 121.188C80.4609 119.651 80.1484 118.74 80.1484 118.453C80.1484 116.109 82.0104 114.938 85.7344 114.938C87.7396 114.938 89.276 115.263 90.3438 115.914C91.4375 116.565 91.9844 117.281 91.9844 118.062C91.9844 118.818 91.8411 119.729 91.5547 120.797C91.2682 121.865 91.0339 122.958 90.8516 124.078C90.6693 125.198 90.5781 127.307 90.5781 130.406C90.5781 133.505 91.151 135.484 92.2969 136.344C93.4688 137.203 96.9323 137.633 102.688 137.633C108.469 137.633 111.776 136.917 112.609 135.484C113.625 133.714 114.133 129.951 114.133 124.195Z" fill="#176C6C"/>
<path d="M105.734 94.7852H106.191C107.152 94.7852 107.996 94.4629 108.723 93.8184C109.461 93.1621 109.83 92.4062 109.83 91.5508L109.865 91.3223V91.0938L109.9 90.5488V89.5469C109.9 88.8672 109.555 88.5273 108.863 88.5273H108.072L107.949 88.5449L107.264 88.5977C106.936 88.6445 106.701 88.668 106.561 88.668C105.611 88.668 104.732 89.0254 103.924 89.7402C103.361 90.2441 103.08 90.959 103.08 91.8848V92.2363C103.08 93.0215 103.332 93.6426 103.836 94.0996C104.352 94.5566 104.984 94.7852 105.734 94.7852ZM101.814 83.5527C101.029 83.5527 100.637 83.0488 100.637 82.041C100.637 81.291 101.27 80.6406 102.535 80.0898C103.812 79.5273 105.137 79.2461 106.508 79.2461H107.387C108.57 79.2461 109.613 79.4688 110.516 79.9141C111.418 80.3477 112.104 80.9395 112.572 81.6895C113.053 82.4395 113.346 83.418 113.451 84.625C113.475 84.9062 113.486 86.2715 113.486 88.7207C113.486 91.1699 113.516 92.582 113.574 92.957C113.645 93.3203 113.832 93.7656 114.137 94.293C114.453 94.8203 114.611 95.2539 114.611 95.5938C114.611 95.9336 114.447 96.2266 114.119 96.4727C113.803 96.707 113.34 96.8242 112.73 96.8242C112.121 96.8242 111.459 96.6777 110.744 96.3848C110.029 96.0801 109.508 95.9277 109.18 95.9277C109.145 95.9277 108.559 96.1387 107.422 96.5605C106.285 96.9707 105.324 97.1758 104.539 97.1758H104.152C102.84 97.1758 101.721 96.7598 100.795 95.9277C99.8809 95.0957 99.4238 93.9121 99.4238 92.377C99.4238 90.8418 99.9277 89.6465 100.936 88.791C101.943 87.9238 103.168 87.332 104.609 87.0156C105.043 86.9219 105.764 86.7988 106.771 86.6465C107.779 86.4941 108.465 86.3359 108.828 86.1719C109.461 85.8789 109.777 85.3281 109.777 84.5195C109.777 83.6992 109.508 83.0605 108.969 82.6035C108.43 82.1348 107.785 81.9004 107.035 81.9004C106.297 81.9004 105.324 82.1758 104.117 82.7266C102.91 83.2773 102.143 83.5527 101.814 83.5527ZM124.438 74.1484V74.3594C124.438 74.957 124.262 75.4668 123.91 75.8887C123.57 76.2988 123.043 76.5039 122.328 76.5039H122.047L121.502 76.4336C121.186 76.4336 120.881 76.2871 120.588 75.9941C120.295 75.7012 120.148 75.2617 120.148 74.6758V74.4648L120.236 73.832C120.236 73.5859 120.383 73.2812 120.676 72.918C120.98 72.5547 121.367 72.373 121.836 72.373L122.24 72.3203H122.592L123.084 72.3906C123.389 72.3906 123.688 72.543 123.98 72.8477C124.285 73.1406 124.438 73.5742 124.438 74.1484ZM123.611 81.5664L123.418 86.2949L123.383 86.7695L123.33 88.2109V88.8965C123.33 90.584 123.377 91.6914 123.471 92.2188C123.576 92.7461 123.77 93.2617 124.051 93.7656C124.332 94.2578 124.473 94.6152 124.473 94.8379V94.9961C124.473 95.5703 124.18 96.0273 123.594 96.3672C123.008 96.707 122.211 96.877 121.203 96.877H120.764C120.178 96.877 119.732 96.748 119.428 96.4902C119.123 96.2207 118.971 95.9336 118.971 95.6289V95.2422C118.971 95.0898 119.105 94.5508 119.375 93.625C119.645 92.6875 119.779 91.416 119.779 89.8105C119.814 89.3535 119.832 89.0371 119.832 88.8613L119.885 87.8945L119.92 87.4199C119.979 86.5996 120.008 85.9609 120.008 85.5039L120.025 84.8008C120.025 83.9219 119.879 83.1426 119.586 82.4629C119.305 81.7832 119.164 81.3613 119.164 81.1973C119.164 80.3535 119.961 79.9316 121.555 79.9316H122.188C122.785 79.9316 123.172 80.0898 123.348 80.4062C123.523 80.7109 123.611 81.0977 123.611 81.5664ZM145.496 96.1035C144.664 96.1035 143.943 95.582 143.334 94.5391C142.936 93.8477 142.303 92.4414 141.436 90.3203C140.58 88.1875 140.094 87.1211 139.977 87.1211C139.941 87.1211 139.455 88.1172 138.518 90.1094C137.58 92.0898 136.883 93.4492 136.426 94.1875C135.699 95.3477 135.002 95.9277 134.334 95.9277C133.912 95.9277 133.467 95.7637 132.998 95.4355C132.541 95.0957 132.172 94.5449 131.891 93.7832C131.855 93.6895 131.586 92.6816 131.082 90.7598C130.59 88.8379 130.08 87.0332 129.553 85.3457C129.037 83.6582 128.779 82.5156 128.779 81.918C128.779 81.3203 128.908 80.8926 129.166 80.6348C129.424 80.377 129.688 80.248 129.957 80.248C131.047 80.248 131.814 80.6992 132.26 81.6016C132.424 81.9297 132.635 82.75 132.893 84.0625C134.123 88.8789 134.949 91.4336 135.371 91.7266C135.816 91.7266 136.467 90.2383 137.322 87.2617C137.674 86.043 137.902 84.9473 138.008 83.9746C138.125 83.002 138.201 82.4395 138.236 82.2871L138.395 81.7246C138.746 80.7988 139.443 80.3359 140.486 80.3359C141.541 80.3359 142.273 80.8691 142.684 81.9355C142.848 82.3691 143 83.1309 143.141 84.2207C143.281 85.2988 143.48 86.3828 143.738 87.4727C144.383 90.2617 144.893 91.6562 145.268 91.6562C145.725 91.6562 146.439 90.1973 147.412 87.2793C147.717 86.3652 148.033 85.2461 148.361 83.9219C148.701 82.5977 148.936 81.8008 149.064 81.5312C149.486 80.6992 150.154 80.2832 151.068 80.2832C151.549 80.2832 151.789 80.752 151.789 81.6895C151.789 82.2402 151.191 84.3379 149.996 87.9824C148.801 91.6152 148.08 93.6953 147.834 94.2227C147.588 94.7383 147.236 95.1836 146.779 95.5586C146.322 95.9219 145.895 96.1035 145.496 96.1035ZM160.93 94.7852H161.387C162.348 94.7852 163.191 94.4629 163.918 93.8184C164.656 93.1621 165.025 92.4062 165.025 91.5508L165.061 91.3223V91.0938L165.096 90.5488V89.5469C165.096 88.8672 164.75 88.5273 164.059 88.5273H163.268L163.145 88.5449L162.459 88.5977C162.131 88.6445 161.896 88.668 161.756 88.668C160.807 88.668 159.928 89.0254 159.119 89.7402C158.557 90.2441 158.275 90.959 158.275 91.8848V92.2363C158.275 93.0215 158.527 93.6426 159.031 94.0996C159.547 94.5566 160.18 94.7852 160.93 94.7852ZM157.01 83.5527C156.225 83.5527 155.832 83.0488 155.832 82.041C155.832 81.291 156.465 80.6406 157.73 80.0898C159.008 79.5273 160.332 79.2461 161.703 79.2461H162.582C163.766 79.2461 164.809 79.4688 165.711 79.9141C166.613 80.3477 167.299 80.9395 167.768 81.6895C168.248 82.4395 168.541 83.418 168.646 84.625C168.67 84.9062 168.682 86.2715 168.682 88.7207C168.682 91.1699 168.711 92.582 168.77 92.957C168.84 93.3203 169.027 93.7656 169.332 94.293C169.648 94.8203 169.807 95.2539 169.807 95.5938C169.807 95.9336 169.643 96.2266 169.314 96.4727C168.998 96.707 168.535 96.8242 167.926 96.8242C167.316 96.8242 166.654 96.6777 165.939 96.3848C165.225 96.0801 164.703 95.9277 164.375 95.9277C164.34 95.9277 163.754 96.1387 162.617 96.5605C161.48 96.9707 160.52 97.1758 159.734 97.1758H159.348C158.035 97.1758 156.916 96.7598 155.99 95.9277C155.076 95.0957 154.619 93.9121 154.619 92.377C154.619 90.8418 155.123 89.6465 156.131 88.791C157.139 87.9238 158.363 87.332 159.805 87.0156C160.238 86.9219 160.959 86.7988 161.967 86.6465C162.975 86.4941 163.66 86.3359 164.023 86.1719C164.656 85.8789 164.973 85.3281 164.973 84.5195C164.973 83.6992 164.703 83.0605 164.164 82.6035C163.625 82.1348 162.98 81.9004 162.23 81.9004C161.492 81.9004 160.52 82.1758 159.312 82.7266C158.105 83.2773 157.338 83.5527 157.01 83.5527ZM190.039 94.8906C190.039 95.7578 189.283 96.1914 187.771 96.1914C186.916 96.1914 186.342 95.9863 186.049 95.5762C185.908 95.377 185.838 94.9082 185.838 94.1699L185.785 93.0449C185.703 91.8145 185.662 90.5781 185.662 89.3359C185.662 86.6523 185.428 84.8535 184.959 83.9395C184.502 83.0137 183.729 82.5508 182.639 82.5508C181.912 82.5508 181.238 82.7676 180.617 83.2012C180.008 83.6348 179.539 84.2383 179.211 85.0117C178.531 86.5938 178.191 89.5176 178.191 93.7832C178.191 94.7559 178.004 95.4414 177.629 95.8398C177.266 96.2383 176.797 96.4375 176.223 96.4375H175.871C174.559 96.4375 173.902 95.916 173.902 94.873V94.4512C173.902 94.3223 173.973 94.041 174.113 93.6074L174.395 92.7988C174.676 91.8496 174.816 89.8164 174.816 86.6992L174.904 81.4785C174.904 80.8105 175.268 80.4766 175.994 80.4766C176.721 80.4766 177.436 80.7168 178.139 81.1973C178.854 81.6777 179.305 81.918 179.492 81.918C179.691 81.918 180.037 81.7832 180.529 81.5137C182.182 80.6113 183.506 80.1602 184.502 80.1602H184.959C186.752 80.1602 188.012 80.9688 188.738 82.5859C189.09 83.3477 189.266 84.9883 189.266 87.5078V87.6309C189.266 87.8418 189.26 88.0527 189.248 88.2637C189.248 88.8379 189.248 89.1367 189.248 89.1602C189.248 89.3828 189.248 89.5996 189.248 89.8105C189.248 89.9746 189.248 90.1328 189.248 90.2852C189.248 91.1875 189.277 91.8027 189.336 92.1309C189.418 92.5762 189.553 93.0391 189.74 93.5195C189.939 94.0469 190.039 94.5039 190.039 94.8906Z" fill="#176C6C"/>
<path d="M133.84 128.148V128.359C133.84 128.957 133.664 129.467 133.312 129.889C132.973 130.299 132.445 130.504 131.73 130.504H131.449L130.904 130.434C130.588 130.434 130.283 130.287 129.99 129.994C129.697 129.701 129.551 129.262 129.551 128.676V128.465L129.639 127.832C129.639 127.586 129.785 127.281 130.078 126.918C130.383 126.555 130.77 126.373 131.238 126.373L131.643 126.32H131.994L132.486 126.391C132.791 126.391 133.09 126.543 133.383 126.848C133.688 127.141 133.84 127.574 133.84 128.148ZM133.014 135.566L132.82 140.295L132.785 140.77L132.732 142.211V142.896C132.732 144.584 132.779 145.691 132.873 146.219C132.979 146.746 133.172 147.262 133.453 147.766C133.734 148.258 133.875 148.615 133.875 148.838V148.996C133.875 149.57 133.582 150.027 132.996 150.367C132.41 150.707 131.613 150.877 130.605 150.877H130.166C129.58 150.877 129.135 150.748 128.83 150.49C128.525 150.221 128.373 149.934 128.373 149.629V149.242C128.373 149.09 128.508 148.551 128.777 147.625C129.047 146.688 129.182 145.416 129.182 143.811C129.217 143.354 129.234 143.037 129.234 142.861L129.287 141.895L129.322 141.42C129.381 140.6 129.41 139.961 129.41 139.504L129.428 138.801C129.428 137.922 129.281 137.143 128.988 136.463C128.707 135.783 128.566 135.361 128.566 135.197C128.566 134.354 129.363 133.932 130.957 133.932H131.59C132.188 133.932 132.574 134.09 132.75 134.406C132.926 134.711 133.014 135.098 133.014 135.566ZM144.439 143.301C143.396 143.301 142.875 144.678 142.875 147.432C142.875 148.627 142.629 149.436 142.137 149.857C141.645 150.279 141.053 150.49 140.361 150.49C139.67 150.49 139.178 150.373 138.885 150.139C138.604 149.904 138.463 149.465 138.463 148.82C138.463 148.773 138.527 148.311 138.656 147.432C138.785 146.553 138.949 143.822 139.148 139.24C139.348 134.646 139.447 131.84 139.447 130.82C139.447 129.801 139.418 129.139 139.359 128.834C139.312 128.518 139.23 128.137 139.113 127.691C139.008 127.246 138.955 126.965 138.955 126.848C138.955 126.332 139.125 125.98 139.465 125.793C139.816 125.594 140.396 125.494 141.205 125.494C142.025 125.494 142.564 125.705 142.822 126.127C143.092 126.549 143.227 127.398 143.227 128.676L142.998 136.129C142.998 138.262 143.244 139.328 143.736 139.328C144.123 139.328 145.072 138.531 146.584 136.938C148.107 135.344 148.887 134.535 148.922 134.512C149.391 134.184 150.1 134.02 151.049 134.02C151.998 134.02 152.473 134.254 152.473 134.723C152.473 134.957 151.717 135.947 150.205 137.693C148.693 139.439 147.938 140.723 147.938 141.543C147.938 141.988 148.799 143.453 150.521 145.938C151.143 146.828 151.729 147.602 152.279 148.258C152.842 148.902 153.123 149.365 153.123 149.646C153.123 150.232 152.578 150.525 151.488 150.525C150.41 150.525 149.578 150.215 148.992 149.594C148.852 149.441 148.523 148.926 148.008 148.047C147.492 147.168 147.129 146.553 146.918 146.201C145.711 144.268 144.885 143.301 144.439 143.301ZM159.979 140.312V140.594C159.979 140.945 160.301 141.121 160.945 141.121H161.367L161.473 141.104L162.334 141.033C163.236 140.904 163.822 140.84 164.092 140.84C165.369 140.84 166.33 140.6 166.975 140.119C167.279 139.885 167.432 139.469 167.432 138.871V138.678C167.432 137.799 167.139 137.102 166.553 136.586C165.979 136.07 165.287 135.812 164.479 135.812H164.355L164.25 135.83C163.113 135.83 162.117 136.311 161.262 137.271C160.406 138.232 159.979 139.246 159.979 140.312ZM163.811 151.229H163.424C161.186 151.229 159.404 150.52 158.08 149.102C156.756 147.672 156.094 145.768 156.094 143.389V142.615C156.094 141.479 156.316 140.324 156.762 139.152C157.664 136.809 159.135 135.191 161.174 134.301C162.252 133.82 163.348 133.58 164.461 133.58H165.217C166.752 133.58 168.047 134.096 169.102 135.127C170.168 136.146 170.701 137.465 170.701 139.082V139.434C170.701 140.582 170.244 141.396 169.33 141.877C168.697 142.217 167.221 142.557 164.9 142.896C162.58 143.236 161.314 143.441 161.104 143.512C160.4 143.758 160.049 144.227 160.049 144.918C160.049 145.879 160.459 146.699 161.279 147.379C162.1 148.059 163.201 148.398 164.584 148.398C165.229 148.398 166.107 148.223 167.221 147.871C168.334 147.52 168.979 147.344 169.154 147.344C169.752 147.344 170.051 147.602 170.051 148.117C170.051 148.809 169.377 149.5 168.029 150.191C166.682 150.883 165.275 151.229 163.811 151.229ZM175.764 141.191C175.049 140.465 174.691 139.445 174.691 138.133C174.691 136.82 175.277 135.695 176.449 134.758C177.621 133.809 179.074 133.334 180.809 133.334H181.266C182.801 133.334 184.02 133.551 184.922 133.984C185.836 134.418 186.293 135.068 186.293 135.936C186.293 136.791 185.912 137.219 185.15 137.219C184.951 137.219 184.389 136.984 183.463 136.516C182.537 136.035 181.664 135.795 180.844 135.795C180.023 135.795 179.361 135.982 178.857 136.357C178.365 136.721 178.119 137.225 178.119 137.869C178.119 138.514 178.465 139.076 179.156 139.557C179.555 139.838 180.492 140.283 181.969 140.893C183.457 141.502 184.518 142.088 185.15 142.65C186.17 143.553 186.68 144.707 186.68 146.113C186.68 147.52 186.082 148.727 184.887 149.734C183.691 150.73 182.139 151.229 180.229 151.229H179.771C177.85 151.229 176.408 150.953 175.447 150.402C174.486 149.84 174.006 149.113 174.006 148.223C174.006 147.32 174.381 146.869 175.131 146.869C175.377 146.869 176.016 147.186 177.047 147.818C178.09 148.451 179.109 148.768 180.105 148.768C181.113 148.768 181.869 148.557 182.373 148.135C182.877 147.701 183.129 147.162 183.129 146.518C183.129 145.861 182.812 145.287 182.18 144.795C181.84 144.525 180.867 144.039 179.262 143.336C177.656 142.621 176.49 141.906 175.764 141.191Z" fill="#176C6C"/>
<path d="M58.5625 76C52.7823 76 47.8066 81.0781 45.5017 86.3827C43.1952 81.0781 38.2194 76 32.4375 76C24.4677 76 18 82.9861 18 91.5926C18 109.101 34.3556 113.691 45.5017 131C56.0377 113.798 73 108.542 73 91.5926C73 82.9861 66.5323 76 58.5625 76V76Z" fill="#D34747"/>
<defs>
<filter id="filter0_d" x="0" y="0" width="210" height="210" filterUnits="userSpaceOnUse" color-interpolation-filters="sRGB">
<feFlood flood-opacity="0" result="BackgroundImageFix"/>
<feColorMatrix in="SourceAlpha" type="matrix" values="0 0 0 0 0 0 0 0 0 0 0 0 0 0 0 0 0 0 127 0"/>
<feOffset dx="3" dy="3"/>
<feGaussianBlur stdDeviation="2.5"/>
<feColorMatrix type="matrix" values="0 0 0 0 0.0901961 0 0 0 0 0.423529 0 0 0 0 0.423529 0 0 0 0.25 0"/>
<feBlend mode="normal" in2="BackgroundImageFix" result="effect1_dropShadow"/>
<feBlend mode="normal" in="SourceGraphic" in2="effect1_dropShadow" result="shape"/>
</filter>
</defs>
</svg>
